<?xml version="1.0" encoding="UTF-8"?><svg xmlns="http://www.w3.org/2000/svg" viewBox="0 0 400 400"><defs><style>.cls-1{fill:#bc7748;}.cls-2{fill:#af6838;}.cls-3{fill:#d69467;}.cls-4{fill:#fff;}.cls-5{fill:#c98455;}</style></defs><g id="_レイヤー_2"><circle class="cls-2" cx="200" cy="200" r="144"/><path class="cls-1" d="M128.75,313.35c4.54,2.86,9.27,5.46,14.15,7.76l-9.52-15.14-4.64,7.38Z"/><path class="cls-3" d="M183.13,332.82c5.53.7,11.16,1.06,16.87,1.06s11.35-.36,16.87-1.06l-16.87-26.85-16.87,26.85Z"/><path class="cls-1" d="M266.61,305.97l-9.52,15.14c4.89-2.31,9.61-4.9,14.15-7.76l-4.64-7.38Z"/><path class="cls-3" d="M118.2,305.97c3.39,2.62,6.91,5.08,10.55,7.38l4.64-7.38h-15.19Z"/><path class="cls-2" d="M133.39,305.97l9.52,15.14c12.47,5.89,26,9.92,40.22,11.7l16.87-26.85h-66.61Z"/><path class="cls-2" d="M200,305.97l16.87,26.85c14.22-1.79,27.75-5.81,40.22-11.7l9.52-15.14h-66.61Z"/><path class="cls-2" d="M266.61,305.97l4.64,7.38c3.64-2.29,7.16-4.75,10.55-7.38h-15.19Z"/><path class="cls-3" d="M133.39,252.99l-26.9,42.8c3.7,3.62,7.61,7.02,11.71,10.19h48.49l-33.31-52.99Z"/><polygon class="cls-1" points="166.69 305.97 233.31 305.97 200 252.99 166.69 305.97"/><path class="cls-3" d="M266.61,252.99l-33.31,52.99h48.49c4.1-3.17,8.01-6.57,11.71-10.19l-26.9-42.8Z"/><path class="cls-2" d="M77.03,252.99c6.97,16.16,17.04,30.68,29.46,42.8l26.9-42.8h-56.36Z"/><polygon class="cls-2" points="166.69 305.97 200 252.99 133.39 252.99 166.69 305.97"/><polygon class="cls-5" points="233.31 305.97 266.61 252.99 200 252.99 233.31 305.97"/><path class="cls-2" d="M322.97,252.99h-56.36l26.9,42.8c12.41-12.12,22.48-26.63,29.46-42.8Z"/><path class="cls-5" d="M66.78,200l-.64,1.01c.14,18.45,4.01,36.01,10.89,51.97h23.05l-33.31-52.99Z"/><polygon class="cls-1" points="100.08 252.99 166.69 252.99 133.39 200 100.08 252.99"/><polygon class="cls-2" points="166.69 252.99 233.31 252.99 200 200 166.69 252.99"/><polygon class="cls-1" points="266.61 200 233.31 252.99 299.92 252.99 266.61 200"/><path class="cls-3" d="M299.92,252.99h23.05c6.89-15.96,10.75-33.52,10.89-51.97l-.64-1.01-33.31,52.99Z"/><polygon class="cls-2" points="100.08 252.99 133.39 200 66.78 200 100.08 252.99"/><polygon class="cls-5" points="166.69 252.99 200 200 133.39 200 166.69 252.99"/><polygon class="cls-3" points="233.31 252.99 266.61 200 200 200 233.31 252.99"/><polygon class="cls-2" points="266.61 200 299.92 252.99 333.22 200 266.61 200"/><path class="cls-2" d="M333.22,200l.64,1.01c0-.34.01-.68.01-1.01h-.65Z"/><path class="cls-1" d="M73.14,157.13c-4.55,13.46-7.01,27.87-7.01,42.87h33.96l-26.94-42.87Z"/><polygon class="cls-2" points="100.08 200 166.69 200 133.39 147.01 100.08 200"/><polygon class="cls-5" points="166.69 200 233.31 200 200 147.01 166.69 200"/><polygon class="cls-3" points="266.61 147.01 233.31 200 299.92 200 266.61 147.01"/><path class="cls-2" d="M333.87,200h0c0-14.99-2.47-29.41-7.01-42.87l-26.94,42.87h33.96Z"/><path class="cls-3" d="M133.39,147.01h-56.36c-1.43,3.31-2.73,6.68-3.89,10.12l26.94,42.87,33.31-52.99Z"/><polygon class="cls-3" points="166.69 200 200 147.01 133.39 147.01 166.69 200"/><polygon class="cls-2" points="233.31 200 266.61 147.01 200 147.01 233.31 200"/><path class="cls-1" d="M299.92,200l26.94-42.87c-1.16-3.44-2.47-6.81-3.89-10.12h-56.36l33.31,52.99Z"/><path class="cls-3" d="M87.64,127.21c-4.06,6.26-7.62,12.88-10.6,19.8h23.05l-12.45-19.8Z"/><polygon class="cls-3" points="100.08 147.01 166.69 147.01 133.39 94.03 100.08 147.01"/><polygon class="cls-1" points="166.69 147.01 233.31 147.01 200 94.03 166.69 147.01"/><polygon class="cls-2" points="266.61 94.03 233.31 147.01 299.92 147.01 266.61 94.03"/><path class="cls-3" d="M322.97,147.01c-2.99-6.92-6.54-13.54-10.6-19.8l-12.45,19.8h23.05Z"/><path class="cls-1" d="M133.39,94.03h-15.19c-11.96,9.25-22.31,20.47-30.56,33.18l12.45,19.8,33.31-52.99Z"/><polygon class="cls-5" points="166.69 147.01 200 94.03 133.39 94.03 166.69 147.01"/><polygon class="cls-3" points="233.31 147.01 266.61 94.03 200 94.03 233.31 147.01"/><path class="cls-5" d="M299.92,147.01l12.45-19.8c-8.25-12.71-18.6-23.94-30.56-33.18h-15.19l33.31,52.99Z"/><path class="cls-5" d="M154.21,74.17c-13.08,4.76-25.2,11.5-36.01,19.86h48.49l-12.48-19.86Z"/><path class="cls-2" d="M233.31,94.03l-16.91-26.9c-5.37-.66-10.85-1-16.4-1s-11.02.34-16.4,1l-16.91,26.9h66.61Z"/><path class="cls-1" d="M281.8,94.03c-10.81-8.36-22.93-15.1-36.01-19.86l-12.48,19.86h48.49Z"/><path class="cls-3" d="M183.6,67.13c-10.2,1.25-20.04,3.63-29.39,7.04l12.48,19.86,16.91-26.9Z"/><path class="cls-5" d="M245.79,74.17c-9.35-3.41-19.2-5.79-29.39-7.04l16.91,26.9,12.48-19.86Z"/></g><g id="_レイヤー_4"><path class="cls-4" d="M154.45,264.09c-1.21,0-2.24-.42-3.08-1.27-.85-.84-1.27-1.87-1.27-3.08v-118.09c0-1.33.42-2.42,1.27-3.26.84-.84,1.87-1.27,3.08-1.27h52.6c9.8,0,17.78,1.48,23.94,4.44,6.17,2.96,10.73,7.05,13.7,12.24,2.96,5.2,4.44,11.25,4.44,18.14,0,4.6-.82,8.62-2.45,12.06-1.63,3.45-3.63,6.26-5.99,8.44-2.36,2.18-4.69,3.87-6.98,5.08,4.72,2.18,8.89,5.8,12.52,10.88s5.44,11.13,5.44,18.14-1.63,13.73-4.9,19.41c-3.27,5.69-8.1,10.13-14.51,13.33-6.41,3.21-14.33,4.81-23.76,4.81h-54.06ZM175.31,189.18h28.48c6.41,0,11.21-1.54,14.42-4.62,3.2-3.08,4.81-7.1,4.81-12.06s-1.6-9.07-4.81-11.97c-3.21-2.9-8.01-4.35-14.42-4.35h-28.48v33.01ZM175.31,244.87h30.29c6.53,0,11.49-1.78,14.87-5.35,3.38-3.57,5.08-7.89,5.08-12.97s-1.72-9.73-5.17-13.24c-3.45-3.51-8.38-5.26-14.78-5.26h-30.29v36.82Z"/></g></svg>