<?xml version="1.0" encoding="UTF-8"?><svg xmlns="http://www.w3.org/2000/svg" viewBox="0 0 400 400"><defs><style>.cls-1{fill:#5d53a5;}.cls-2{fill:#1d0e80;}.cls-3{fill:#3421b3;}.cls-4{fill:#2e18c1;}.cls-5{fill:#695db9;}.cls-6{fill:#7769d2;}.cls-7{fill:#281a80;}.cls-8{fill:#3214f7;}.cls-9{fill:#8575ea;}.cls-10{fill:#322680;}.cls-11{fill:#2e0ffe;}.cls-12{fill:#221480;}.cls-13{fill:#3c3180;}.cls-14{fill:#473d85;}.cls-15{fill:#352a80;}.cls-16{fill:#fff;}.cls-17{fill:#1a0b80;}.cls-18{fill:#7265c9;}.cls-19{fill:#6854ec;}.cls-20{fill:#554b96;}.cls-21{fill:#2b1e80;}.cls-22{fill:#291b80;}.cls-23{fill:#1c0d80;}.cls-24{fill:#3d1fff;}.cls-25{fill:#3b25cc;}.cls-26{fill:#22109a;}.cls-27{fill:#291d80;}.cls-28{fill:#6a5ebb;}.cls-29{fill:#3f3489;}.cls-30{fill:#3d318d;}.cls-31{fill:#7467cd;}.cls-32{fill:#423788;}.cls-33{fill:#6f60cf;}.cls-34{fill:#484080;}.cls-35{fill:#6156ab;}.cls-36{fill:#381df0;}.cls-37{fill:#221380;}.cls-38{fill:#4e38e2;}.cls-39{fill:#3c3280;}.cls-40{fill:#443b80;}.cls-41{fill:#8374e8;}.cls-42{fill:#1b06a4;}.cls-43{fill:#8979f2;}.cls-44{fill:#3b2ba3;}.cls-45{fill:#3c2e97;}.cls-46{fill:#402fb4;}.cls-47{fill:#7164c8;}</style></defs><g id="_レイヤー_2"><polygon class="cls-34" points="254.04 66.37 253.56 66.65 254.16 66.77 254.04 66.37"/><polygon class="cls-23" points="200 56 144.89 66.96 199.87 98.36 200 56"/><polygon class="cls-3" points="220.45 118.94 254.48 67.9 254.48 67.89 254.16 66.77 253.56 66.65 199.87 98.36 220.45 118.94"/><polygon class="cls-41" points="271.87 128.18 301.82 98.18 255.11 66.96 254.74 68.79 271.87 128.18"/><polygon class="cls-25" points="254.77 67.19 254.48 67.89 254.48 67.9 255.11 66.96 254.16 66.77 254.48 67.89 254.77 67.19"/><polygon class="cls-8" points="179.34 118.89 199.87 98.36 144.89 66.96 144.75 67.47 179.34 118.89"/><polygon class="cls-34" points="253.56 66.65 200 56 199.87 98.36 253.56 66.65"/><polygon class="cls-35" points="127.87 128.18 66.96 144.89 127.87 157.07 127.87 128.18"/><polygon class="cls-46" points="68.64 146.01 66.96 144.89 67.27 145.45 68.64 146.01"/><polygon class="cls-34" points="144.71 67.61 144.65 67.32 144.75 67.47 144.89 66.96 98.18 98.18 127.87 128.18 144.71 67.61"/><polygon class="cls-3" points="98.18 98.18 66.96 144.89 127.87 128.18 98.18 98.18"/><polygon class="cls-3" points="145.29 332.45 145.09 332.93 199.87 302 179.3 281.44 145.29 332.45"/><polygon class="cls-14" points="271.87 128.18 254.74 68.79 242.87 128.18 271.87 128.18"/><polygon class="cls-34" points="68.64 146.01 67.27 145.45 98.05 200.18 118.78 179.45 68.64 146.01"/><polygon class="cls-34" points="254.48 67.89 254.48 67.9 254.48 67.9 254.48 67.89"/><polygon class="cls-8" points="344 200 333.04 144.89 301.69 200.18 344 200"/><polygon class="cls-7" points="271.87 157.12 333.04 144.89 271.87 128.18 271.87 157.12"/><polygon class="cls-29" points="301.69 200.18 333.04 144.89 281.06 179.55 301.69 200.18"/><polygon class="cls-25" points="333.04 144.89 301.82 98.18 271.87 128.18 333.04 144.89"/><polygon class="cls-19" points="67.27 145.45 66.89 145.29 67.27 145.45 66.96 144.89 56.16 199.2 98.05 200.18 67.27 145.45"/><polygon class="cls-3" points="68.48 254.8 67.43 255.24 127.87 272.18 127.87 242.93 68.48 254.8"/><polygon class="cls-43" points="301.69 200.18 333.04 255.11 344 200 301.69 200.18"/><polygon class="cls-44" points="332.88 255.07 332.87 255.07 271.87 242.88 271.87 272.18 333.04 255.11 332.87 255.07 332.88 255.07"/><polygon class="cls-2" points="199.87 302 255.11 333.04 220.59 281.28 199.87 302"/><polygon class="cls-34" points="144.89 333.04 145.03 333.07 145.09 332.93 144.89 333.04"/><polygon class="cls-34" points="200 344 255.11 333.04 199.87 302 200 344"/><polygon class="cls-35" points="145.09 332.93 145.03 333.07 200 344 199.87 302 145.09 332.93"/><polygon class="cls-25" points="281.28 220.59 333.04 255.11 301.69 200.18 281.28 220.59"/><polygon class="cls-21" points="56.16 199.2 56 200 66.96 255.11 98.05 200.18 56.16 199.2"/><polygon class="cls-11" points="301.82 301.82 333.04 255.11 271.87 272.18 301.82 301.82"/><polygon class="cls-2" points="255.11 333.04 301.82 301.82 271.87 272.18 255.11 333.04"/><polygon class="cls-43" points="242.94 272.18 255.11 333.04 271.87 272.18 242.94 272.18"/><polygon class="cls-34" points="66.96 255.11 67.13 255.36 67.43 255.24 66.96 255.11"/><polygon class="cls-26" points="98.18 301.82 144.89 333.04 127.87 272.18 98.18 301.82"/><polygon class="cls-43" points="67.43 255.24 67.13 255.36 98.18 301.82 127.87 272.18 67.43 255.24"/><polygon class="cls-34" points="127.87 272.18 144.89 333.04 157.06 272.18 127.87 272.18"/><polygon class="cls-15" points="68.48 254.8 66.96 255.11 67.43 255.24 68.48 254.8"/><polygon class="cls-9" points="145.29 332.45 144.89 333.04 145.09 332.93 145.29 332.45"/><polygon class="cls-43" points="98.05 200.18 66.96 255.11 118.56 220.7 98.05 200.18"/><polygon class="cls-15" points="127.87 230.11 127.87 230 118.56 220.7 66.96 255.11 68.48 254.8 127.87 230.11"/><polygon class="cls-29" points="127.8 170.43 68.64 146.01 118.78 179.45 127.8 170.43"/><polygon class="cls-34" points="229.81 272.18 255.11 333.04 242.94 272.18 229.81 272.18"/><polygon class="cls-47" points="254.74 68.79 255.11 66.96 254.48 67.9 254.74 68.79"/><polygon class="cls-19" points="271.95 229.93 332.87 255.07 333.04 255.11 281.28 220.59 271.95 229.93"/><polygon class="cls-37" points="169.95 128.18 144.74 67.52 144.71 67.61 157.01 128.18 169.95 128.18"/><polygon class="cls-3" points="229.69 128.18 242.87 128.18 254.74 68.79 254.48 67.9 254.48 67.9 229.63 128.11 229.69 128.18"/><polygon class="cls-6" points="144.65 67.32 144.71 67.61 144.74 67.52 144.65 67.32"/><polygon class="cls-36" points="127.8 170.43 127.87 170.36 127.87 157.07 66.96 144.89 68.64 146.01 127.8 170.43"/><polygon class="cls-42" points="254.48 67.9 220.45 118.94 229.63 128.11 254.48 67.9"/><polygon class="cls-1" points="169.95 128.18 170.05 128.18 179.34 118.89 144.75 67.47 144.74 67.52 169.95 128.18"/><polygon class="cls-34" points="144.75 67.47 144.65 67.32 144.74 67.52 144.75 67.47"/><polygon class="cls-11" points="127.87 230.11 68.48 254.8 127.87 242.93 127.87 230.11"/><polygon class="cls-28" points="271.87 170.26 332.74 144.95 271.87 170.26 271.87 170.36 281.06 179.55 333.04 144.89 271.87 157.12 271.87 170.26"/><polygon class="cls-34" points="271.87 242.88 332.87 255.07 271.95 229.93 271.87 230 271.87 242.88"/><polygon class="cls-33" points="229.69 272.18 220.59 281.28 255.11 333.04 229.81 272.18 229.69 272.18"/><polygon class="cls-17" points="170.13 272.26 170.05 272.18 157.06 272.18 144.89 333.04 145.29 332.45 170.13 272.26"/><polygon class="cls-34" points="170.13 272.26 145.29 332.45 179.3 281.44 170.13 272.26"/><polygon class="cls-27" points="240.74 261.14 242.94 272.18 271.87 272.18 271.87 242.88 261.14 240.74 240.74 261.14"/><polygon class="cls-14" points="159.21 139.01 157.01 128.18 127.87 128.18 127.87 157.07 138.95 159.28 159.21 139.01"/><polygon class="cls-23" points="240.68 139.16 260.84 159.32 271.87 157.12 271.87 128.18 242.87 128.18 240.68 139.16"/><polygon class="cls-24" points="138.64 240.78 127.87 242.93 127.87 272.18 157.06 272.18 159.22 261.36 138.64 240.78"/><polygon class="cls-45" points="261.14 240.74 271.87 242.88 271.87 230 261.14 240.74"/><polygon class="cls-36" points="157.06 272.18 170.05 272.18 159.22 261.36 157.06 272.18"/><polygon class="cls-35" points="229.77 272.1 229.81 272.18 242.94 272.18 240.74 261.14 229.77 272.1"/><polygon class="cls-34" points="271.8 170.29 271.87 170.26 271.87 157.12 260.84 159.32 271.8 170.29"/><polygon class="cls-20" points="127.87 230 127.87 230.11 127.95 230.08 127.87 230"/><polygon class="cls-41" points="242.87 128.18 229.69 128.18 240.68 139.16 242.87 128.18"/><polygon class="cls-40" points="170.05 128.18 169.95 128.18 169.98 128.25 170.05 128.18"/><polygon class="cls-34" points="271.87 170.36 271.87 170.26 271.8 170.29 271.87 170.36"/><polygon class="cls-34" points="138.64 240.78 127.95 230.08 127.87 230.11 127.87 242.93 138.64 240.78"/><polygon class="cls-34" points="127.87 157.07 127.87 170.36 138.95 159.28 127.87 157.07"/><polygon class="cls-34" points="229.69 272.18 229.81 272.18 229.77 272.1 229.69 272.18"/><polygon class="cls-43" points="169.95 128.18 157.01 128.18 159.21 139.01 169.98 128.25 169.95 128.18"/><polygon class="cls-19" points="271.87 185.68 271.87 214.32 281.28 220.59 301.69 200.18 281.06 179.55 271.87 185.68"/><polygon class="cls-21" points="214.28 128.18 220.45 118.94 199.87 98.36 179.34 118.89 185.59 128.18 214.28 128.18"/><polygon class="cls-11" points="127.87 185.51 118.78 179.45 98.05 200.18 118.56 220.7 127.87 214.49 127.87 185.51"/><polygon class="cls-42" points="185.48 272.18 179.3 281.44 199.87 302 220.59 281.28 214.52 272.18 185.48 272.18"/><polygon class="cls-4" points="185.59 128.18 179.34 118.89 170.05 128.18 185.59 128.18"/><polygon class="cls-47" points="127.87 170.36 127.8 170.43 127.87 170.46 127.87 170.36"/><polygon class="cls-21" points="220.59 281.28 229.69 272.18 214.52 272.18 220.59 281.28"/><polygon class="cls-22" points="229.63 128.11 229.6 128.18 229.69 128.18 229.63 128.11"/><polygon class="cls-3" points="281.06 179.55 271.87 170.36 271.87 185.68 281.06 179.55"/><polygon class="cls-17" points="118.56 220.7 127.87 230 127.87 214.49 118.56 220.7"/><polygon class="cls-14" points="170.05 272.18 170.13 272.26 170.16 272.18 170.05 272.18"/><polygon class="cls-1" points="127.87 185.51 127.87 170.46 127.8 170.43 118.78 179.45 127.87 185.51"/><polygon class="cls-34" points="185.48 272.18 170.16 272.18 170.13 272.26 179.3 281.44 185.48 272.18"/><polygon class="cls-20" points="271.87 230 271.95 229.93 271.87 229.89 271.87 230"/><polygon class="cls-18" points="229.6 128.18 229.63 128.11 220.45 118.94 214.28 128.18 229.6 128.18"/><polygon class="cls-43" points="271.87 229.89 271.95 229.93 281.28 220.59 271.87 214.32 271.87 229.89"/><polygon class="cls-34" points="214.52 272.18 200 250.4 185.48 272.18 214.52 272.18"/><polygon class="cls-5" points="214.28 128.18 185.59 128.18 200 149.6 214.28 128.18"/><polygon class="cls-24" points="159.22 261.36 164.36 235.64 138.64 240.78 159.22 261.36"/><polygon class="cls-2" points="260.84 159.32 240.68 139.16 235.64 164.36 260.84 159.32"/><polygon class="cls-34" points="127.87 214.49 149.6 200 127.87 185.51 127.87 214.49"/><polygon class="cls-3" points="138.95 159.28 164.36 164.36 159.21 139.01 138.95 159.28"/><polygon class="cls-34" points="240.74 261.14 261.14 240.74 235.64 235.64 240.74 261.14"/><polygon class="cls-12" points="271.87 214.32 271.87 185.68 250.4 200 271.87 214.32"/><polygon class="cls-32" points="242.96 217.96 271.87 229.89 271.87 214.32 250.4 200 242.96 217.96"/><polygon class="cls-43" points="127.87 170.46 127.87 185.51 149.6 200 156.88 182.43 127.87 170.46"/><polygon class="cls-34" points="235.64 235.64 261.14 240.74 271.87 230 271.87 229.89 242.96 217.96 235.64 235.64"/><polygon class="cls-24" points="169.98 128.25 159.21 139.01 164.36 164.36 181.96 157.07 169.98 128.25"/><polygon class="cls-13" points="127.95 230.08 138.64 240.78 164.36 235.64 157.05 217.98 127.95 230.08"/><polygon class="cls-29" points="156.88 182.43 164.36 164.36 138.95 159.28 127.87 170.36 127.87 170.46 156.88 182.43"/><polygon class="cls-30" points="217.71 243.07 200 250.4 214.52 272.18 229.69 272.18 229.77 272.1 217.71 243.07"/><polygon class="cls-21" points="243.04 182.24 250.4 200 271.87 185.68 271.87 170.36 271.8 170.29 243.04 182.24"/><polygon class="cls-31" points="182.2 243.03 164.36 235.64 159.22 261.36 170.05 272.18 170.16 272.18 182.2 243.03"/><polygon class="cls-31" points="217.71 243.07 229.77 272.1 240.74 261.14 235.64 235.64 217.71 243.07"/><polygon class="cls-38" points="157.05 217.98 149.6 200 127.87 214.49 127.87 230 127.95 230.08 157.05 217.98"/><polygon class="cls-33" points="170.16 272.18 185.48 272.18 200 250.4 182.2 243.03 170.16 272.18"/><polygon class="cls-37" points="243.04 182.24 271.8 170.29 260.84 159.32 235.64 164.36 243.04 182.24"/><polygon class="cls-34" points="235.64 164.36 240.68 139.16 229.69 128.18 229.6 128.18 217.73 156.94 235.64 164.36"/><polygon class="cls-32" points="217.73 156.94 229.6 128.18 214.28 128.18 200 149.6 217.73 156.94"/><polygon class="cls-34" points="181.96 157.07 200 149.6 185.59 128.18 170.05 128.18 169.98 128.25 181.96 157.07"/><polygon class="cls-10" points="182.2 243.03 200 250.4 217.71 243.07 199.88 200.18 182.2 243.03"/><polygon class="cls-11" points="157.05 217.98 164.36 235.64 182.2 243.03 199.88 200.18 157.05 217.98"/><polygon class="cls-39" points="156.88 182.43 149.6 200 157.05 217.98 199.88 200.18 156.88 182.43"/><polygon class="cls-19" points="200 149.6 181.96 157.07 199.88 200.18 217.73 156.94 200 149.6"/><polygon class="cls-39" points="217.73 156.94 199.88 200.18 243.04 182.24 235.64 164.36 217.73 156.94"/><polygon class="cls-3" points="242.96 217.96 250.4 200 243.04 182.24 199.88 200.18 242.96 217.96"/><polygon class="cls-34" points="181.96 157.07 164.36 164.36 156.88 182.43 199.88 200.18 181.96 157.07"/><polygon class="cls-43" points="242.96 217.96 199.88 200.18 217.71 243.07 235.64 235.64 242.96 217.96"/><polygon class="cls-43" points="144.71 67.61 127.87 128.18 157.01 128.18 144.71 67.61"/></g><g id="_レイヤー_4"><path class="cls-16" d="M154.45,264.09c-1.21,0-2.24-.42-3.08-1.27-.85-.84-1.27-1.87-1.27-3.08v-118.09c0-1.33.42-2.42,1.27-3.26.84-.84,1.87-1.27,3.08-1.27h44.26c12.21,0,22.28,1.88,30.2,5.62,7.92,3.75,13.9,9.31,17.96,16.69,4.05,7.38,6.14,16.39,6.26,27.03.24,5.32.36,10.04.36,14.15s-.12,8.77-.36,13.97c-.24,11.25-2.3,20.53-6.17,27.84-3.87,7.32-9.71,12.76-17.5,16.33-7.8,3.57-17.75,5.35-29.84,5.35h-45.17ZM175.31,243.23h23.4c6.77,0,12.27-.97,16.51-2.9,4.23-1.93,7.35-5.05,9.34-9.34,2-4.29,3.05-9.95,3.17-16.96.12-3.63.21-6.8.27-9.52.06-2.72.06-5.44,0-8.16-.06-2.72-.15-5.83-.27-9.34-.24-9.91-2.72-17.23-7.44-21.95s-12.22-7.07-22.49-7.07h-22.49v85.25Z"/></g></svg>