<?xml version="1.0" encoding="UTF-8"?><svg id="_レイヤー_2" xmlns="http://www.w3.org/2000/svg" viewBox="0 0 500 500"><defs><style>.cls-1{fill:#faee00;}.cls-2,.cls-3,.cls-4,.cls-5{stroke:#7fbe26;stroke-width:5px;}.cls-2,.cls-3,.cls-5{stroke-linecap:round;}.cls-2,.cls-4{stroke-miterlimit:10;}.cls-2,.cls-5{fill:none;}.cls-3,.cls-6,.cls-4{fill:#fff;}.cls-3,.cls-5{stroke-linejoin:round;}.cls-7{fill:#7fbe26;}.cls-8{fill:#007d4f;}</style></defs><path class="cls-7" d="M338.11,408.08c27.55,1.76,46.96.76,69.3-5.43,0,0,1.71-30.06-9.36-57-4.23-10.3-35.29-64.79-85.95-63.16s-76.66,60.96-76.66,60.96l1.6,16.2,10.28,6.65s-14.26,51.38-15.78,75.71h107.72l-1.13-33.94Z"/><path class="cls-6" d="M339.24,439.76c-.08-9.61-.38-20.25-1.15-31.47,21.07,1.9,42.38.34,63.9-4.23v32.45s-62.76,3.24-62.76,3.24Z"/><line class="cls-5" x1="402" y1="404.06" x2="402" y2="436.51"/><path class="cls-6" d="M216.36,180.9c3.81-52.06,42.32-94.52,94.52-94.52s86.19,42.98,94.52,94.52c8.73,54.04-33.41,91.92-94.52,94.52-57.5,2.45-98.62-38.33-94.52-94.52Z"/><path class="cls-2" d="M217.63,165.38c7.4-44.82,46.33-79,93.25-79,52.2,0,94.52,42.32,94.52,94.52s-25.79,94.52-94.52,94.52-91.84-39.69-94.39-89.61"/><path class="cls-2" d="M225.22,220.89c8.81,6.79,27.42,5.03,32.32-7.77"/><path class="cls-7" d="M366.27,213.27s36.22,12.91,52.01-27.03c16.3-41.23-18.08-80.65-34.68-80.65,0,0-15.12-44.75-70.24-41.2s-36.36,65.8-4.19,61.95c-.89,18.08,16.48,57.8,36.04,58.64,0,0,13.69-2.7,20.87,8.81s.19,19.48.19,19.48Z"/><path class="cls-5" d="M246.47,160.71s-6.78,13.22,6.13,17.49,17.78-8.74,17.78-8.74"/><path class="cls-5" d="M332.61,214.66s16.69,15.69,29.96,3.26c14.22-13.33,2.67-26.97-2.07-29.94s-13.04-4.09-19.56-1.75"/><path class="cls-5" d="M366.27,213.27s36.22,12.91,52.01-27.03c16.3-41.23-18.08-80.65-34.68-80.65,0,0-15.12-44.75-70.24-41.2s-36.36,65.8-4.19,61.95c-.89,18.08,16.48,57.8,36.04,58.64"/><path class="cls-2" d="M220.04,165.69s-13.24-2.84-15.61,6.87c-2.59,10.58,13.64,13.67,13.64,13.67"/><path class="cls-5" d="M235.42,343.46s26-59.33,76.66-60.96,81.72,52.86,85.95,63.16c11.07,26.94,9.36,57,9.36,57-23.79,6.59-44.27,7.29-74.8,5.05v-42.72"/><line class="cls-5" x1="237.02" y1="359.66" x2="247.3" y2="366.31"/><path class="cls-3" d="M126.49,178.85l-57,99.04c-4.45,7.72-1.79,17.59,5.94,22.04l60.14,34.61c7.72,4.45,17.59,1.79,22.04-5.94l57-99.04-88.11-50.71Z"/><path class="cls-1" d="M135.79,179.34l-58.07,100.89c-2.51,4.36-1.01,9.92,3.35,12.43l57.94,33.34c4.36,2.51,9.92,1.01,12.43-3.35l58.07-100.89-73.71-42.42Z"/><path class="cls-3" d="M219.47,193.44c0-.16.02-.31.01-.46-.3-11.12-9.18-19.96-20.12-20.43-2.72-8.79-11-15.08-20.65-14.82-5.77.16-10.94,2.63-14.64,6.49-4.57-7.66-13.03-12.7-22.59-12.44-14.07.38-25.17,12.09-24.79,26.17s12.09,25.17,26.17,24.79c4.02-.11,7.79-1.14,11.13-2.89-.84,2.09-1.29,4.39-1.22,6.79.25,9.36,8.04,16.74,17.4,16.49,5.53-.15,10.35-2.94,13.33-7.12,0,.15,0,.29,0,.43.37,13.76,11.82,24.61,25.58,24.24,13.76-.37,24.61-11.82,24.24-25.58-.26-9.55-5.85-17.69-13.85-21.66Z"/><circle class="cls-6" cx="128.99" cy="228.92" r="9.72"/><circle class="cls-6" cx="143.48" cy="259.66" r="8.29"/><circle class="cls-6" cx="168.22" cy="255.57" r="7.08"/><circle class="cls-6" cx="116.33" cy="265.1" r="7.08"/><circle class="cls-6" cx="138.05" cy="294.44" r="9.14"/><path class="cls-4" d="M170.16,306.77l10.65,6.13c3.71,2.13,8.45.85,10.59-2.85l14.68-25.51c2.13-3.71.85-8.45-2.85-10.59l-10.65-6.13,10.19-17.71,10.65,6.13c13.47,7.75,18.12,25.01,10.37,38.48l-14.68,25.51c-7.75,13.47-25.01,18.12-38.48,10.37l-10.65-6.13,10.19-17.71Z"/><path class="cls-6" d="M183.42,306.72l22.35-38.76s12.54-.2,16.03,5.71c0,0,17.15,3.09,19.8,9.59s4.97,32.16-10.07,42.63l5.49,30.08.74,6.46,9.74,6.04-11.67,44.67s-9.63,12.85-17.89,10.06-20.9-7.54-23.49-27.29-3.79-50.15-3.79-50.15c0,0-14.2-4.97-16.88-13.59,0,0,12.08,11.54,19.94,6.14,0,0,16.78-7.98,19.17-10.37l-6.71-3.52-13.15-11.1-9.6-6.6Z"/><path class="cls-5" d="M220.04,298.97c-12.08-1.43-16.01-11.39-11.38-19.02s16.91-6,23.73-3.82,14.18,9.27,12.25,25.17-13.61,25.01-13.61,25.01c0,0,5.18,32.57,6.93,36.66"/><path class="cls-5" d="M183.42,306.72s10.32,5.13,14.59,11.2,9.74,7.15,13.25,3.87,4.71-12.85-7.4-21.48c-6.95-4.95-5.29-3.55-12.1-5.88-3.19-.86-7.2.4-9.23,4.56-2.53,5.19.89,7.72.89,7.72Z"/><path class="cls-5" d="M206.77,282.5c-4.88-3.9-7.38-3.56-7.38-3.56-3.05.67-13.81,6.35-9.55,14.99"/><path class="cls-5" d="M216.4,313.04s1.63-.72,3.97-3.84-2.62-10.62-2.62-10.62"/><path class="cls-5" d="M197.63,278.93s1.05-13.24,16.03-10.97c8.2,1.25,8.14,6.36,8.14,6.36"/><path class="cls-5" d="M173.77,332.16s6.13,11.33,16.84,12.89c0,0,2.06,38.41,4.6,52.03,2.73,14.62,15.74,30.67,28.52,24.94,6.95-3.12,11.69-9.16,11.69-9.16"/><path class="cls-5" d="M252.77,352.07c-10.55,31.61-18.31,61.3-21.24,87.69h107.72c-.08-9.61-.38-20.25-1.15-31.47"/><circle class="cls-8" cx="291.68" cy="372.54" r="38.49"/><path class="cls-6" d="M270.63,391.53l-2.86-3.81c-14.73-23.72,10.62-52.44,36.1-40.27,20.63,9.84,21.35,40.1.86,50.43-8.21,4.14-20.74,3.63-28.06-2.19-9.49-7.54-4.02-18.17,7.48-18.04,6.81.07,9.79,2.97,15.25,5.97,2.01,1.1,4.39,1.44,4.8-1.43.52-3.69-3.15-11.72-5.28-14.79-.93-1.34-1.17-1.79-2.92-1.83-2.8-.06-5.59.62-8.53.45-4.78-.29-9.83-2.51-11.44-7.35-.2-.6-.63-2.23-.09-2.67s.92.82,1.18,1.19c2.73,3.96,9.65,5.8,14.21,4.98,2.24-.4,1.52-1.47.53-2.85-1.67-2.3-6.09-6.58-3.36-9.6,1.85-2.04,4.49-.73,6.15.81,2.32,2.14,3.77,4.34,6.99,5.46,1.98.69,6.17.16,7.11,2.37,1.17,2.75-3.05,4.4-4.95,5.1-.67.25-1.67.42-2.25.73-1.23.64.04,2.4.54,3.23,2.16,3.57,4.18,6.46,5.64,10.48,1.22,3.36,2.85,10.46-1.35,12.36-3.56,1.61-6-1.88-8.23-3.96-3.67-3.43-8.71-7.29-14.04-6.82-6.47.58-9.24,7.3-4.52,11.97,3.13,3.11,8.63,4.61,12.92,5.07,22.29,2.36,32.55-23.92,19.4-40.16-9.95-12.29-28.41-12.86-39.21-1.49-8.85,9.32-9.55,24.62-2.89,35.3.09.15,1.01,1.26.82,1.37ZM294.06,351.62c-.92-.09-1.56.6-1.64,1.48-.19,1.93,3.03,6.35,4.68,7.28,1.94,1.09,4.52-.58,3.34-2.76-.48-.89-3.64-4.12-4.53-4.91-.5-.45-1.16-1.01-1.84-1.08Z"/></svg>