<?xml version="1.0" encoding="UTF-8"?><svg id="_レイヤー_2" xmlns="http://www.w3.org/2000/svg" viewBox="0 0 500 500"><defs><style>.cls-1{fill:#faee00;}.cls-2,.cls-3,.cls-4,.cls-5{stroke:#7fbe26;stroke-width:5px;}.cls-2,.cls-3,.cls-5{stroke-linecap:round;}.cls-2,.cls-4{stroke-miterlimit:10;}.cls-2,.cls-5{fill:none;}.cls-3,.cls-6,.cls-4{fill:#fff;}.cls-3,.cls-5{stroke-linejoin:round;}.cls-7{fill:#7fbe26;}.cls-8{fill:#007d4f;}</style></defs><path class="cls-6" d="M236.86,140.09c24.01-46.35,76.13-70.2,124.11-49.63,47.98,20.57,62.29,73.47,49.63,124.11-13.27,53.11-66.92,71.32-124.11,49.63-53.82-20.4-75.55-74.09-49.63-124.11Z"/><path class="cls-2" d="M244.14,126.32c24.46-38.27,73.71-54.35,116.83-35.87,47.98,20.57,70.2,76.13,49.63,124.11-20.57,47.98-60.94,76.71-124.11,49.63-63.17-27.08-68.77-72.66-51.45-119.55"/><path class="cls-2" d="M229.25,180.33c5.42,9.71,23.23,15.42,32.77,5.6"/><path class="cls-7" d="M361.9,228.9s28.2,26.14,58.46-4.35c31.23-31.47,15.16-81.25-.1-87.79,0,0,3.74-47.09-48.33-65.54-52.07-18.45-59.34,46.15-28.26,55.28-7.94,16.27-7.63,59.62,10.02,68.1,0,0,13.64,2.91,15.71,16.32,2.07,13.41-7.51,17.98-7.51,17.98Z"/><path class="cls-5" d="M272.49,133.4s-11.44,9.48-1.25,18.49c10.61,9.38,19.79-1.03,19.79-1.03"/><path class="cls-5" d="M330.41,216.91s9.16,21,26.25,14.8c18.32-6.64,13.08-23.74,9.89-28.33s-10.37-8.9-17.29-9.32"/><path class="cls-5" d="M361.9,228.9s28.2,26.14,58.46-4.35c31.23-31.47,15.16-81.25-.1-87.79,0,0,3.74-47.09-48.33-65.54-52.07-18.45-59.34,46.15-28.26,55.28-7.94,16.27-7.63,59.62,10.02,68.1"/><path class="cls-2" d="M246.24,127.56s-11.05-7.82-17.05.16c-6.55,8.71,7.15,17.94,7.15,17.94"/><path class="cls-7" d="M338.11,408.08c27.55,1.76,46.96.76,69.3-5.43,0,0,1.71-30.06-9.36-57-4.23-10.3-35.29-64.79-85.95-63.16s-90.38,69.15-90.38,69.15l11.83,11.46,11.33,10.12c1.75-6.4-11.62,43.7-13.34,68.8h107.72l-1.13-33.94Z"/><path class="cls-6" d="M339.24,439.76c-.08-9.61-.38-20.25-1.15-31.47,21.07,1.9,42.38.34,63.9-4.23v32.45s-62.76,3.24-62.76,3.24Z"/><line class="cls-5" x1="402" y1="404.06" x2="402" y2="436.51"/><path class="cls-3" d="M147.37,134.79l-77.95,83.56c-6.08,6.52-5.73,16.73.79,22.81l50.74,47.33c6.52,6.08,16.73,5.73,22.81-.79l77.95-83.56-74.34-69.35Z"/><path class="cls-1" d="M156.32,137.38l-79.41,85.12c-3.43,3.67-3.23,9.43.45,12.86l48.88,45.6c3.67,3.43,9.43,3.23,12.86-.45l79.41-85.12-62.19-58.02Z"/><path class="cls-3" d="M234.63,170.06c.03-.15.08-.29.12-.45,2.23-10.9-4.42-21.52-14.97-24.46-.65-9.18-7.3-17.18-16.76-19.11-5.66-1.16-11.25.08-15.73,3.01-2.72-8.5-9.82-15.32-19.18-17.23-13.79-2.82-27.26,6.08-30.08,19.87-2.82,13.79,6.08,27.26,19.87,30.08,3.94.8,7.85.65,11.49-.3-1.3,1.85-2.25,3.98-2.73,6.33-1.87,9.17,4.04,18.13,13.21,20,5.42,1.11,10.75-.52,14.6-3.92-.03.14-.07.28-.1.42-2.76,13.48,5.94,26.65,19.43,29.4s26.65-5.94,29.4-19.43c1.91-9.36-1.69-18.56-8.59-24.24Z"/><circle class="cls-6" cx="138.46" cy="184.12" r="9.72"/><circle class="cls-6" cx="145.62" cy="217.36" r="8.29"/><circle class="cls-6" cx="170.64" cy="218.97" r="7.08"/><circle class="cls-6" cx="117.94" cy="216.5" r="7.08"/><circle class="cls-6" cx="132.45" cy="249.99" r="9.14"/><path class="cls-4" d="M160.93,269.28l8.99,8.38c3.13,2.92,8.04,2.75,10.96-.38l20.08-21.52c2.92-3.13,2.75-8.04-.38-10.96l-8.99-8.38,13.94-14.94,8.99,8.38c11.36,10.6,11.98,28.47,1.38,39.83l-20.08,21.52c-10.6,11.36-28.47,11.98-39.83,1.38l-8.99-8.38,13.94-14.94Z"/><path class="cls-6" d="M173.86,272.24l30.55-32.69s12.26,2.65,14.32,9.2c0,0,16,6.9,17.11,13.82,1.11,6.93-2.44,32.45-19.46,39.25l-1.46,30.55-.74,6.46,8.11,8.09-21.49,40.86s-12.29,10.33-19.7,5.74c-7.41-4.59-18.65-12.08-16.7-31.9,1.95-19.83,7.67-49.7,7.67-49.7,0,0-12.7-8.06-13.36-17.07,0,0,9.15,13.97,18.03,10.5,0,0,18.16-3.97,21.02-5.76l-5.74-4.95-10.3-13.79-7.85-8.6Z"/><path class="cls-5" d="M211.28,272.98c-11.44-4.13-13.02-14.72-6.77-21.11,6.25-6.39,17.83-2.01,23.98,1.66s11.71,12.24,6.23,27.29c-5.49,15.05-18.92,21.28-18.92,21.28,0,0,2.35,50.4,3.13,54.78"/><path class="cls-5" d="M173.86,272.24s8.89,7.33,11.67,14.22,7.87,9.17,12.03,6.77c4.16-2.4,7.5-11.45-2.35-22.6-5.65-6.4-4.35-4.66-10.45-8.46-2.91-1.56-7.1-1.24-10.02,2.36-3.64,4.48-.88,7.72-.88,7.72Z"/><path class="cls-5" d="M202.09,253.93c-3.87-4.9-6.38-5.14-6.38-5.14-3.12-.04-14.89,3.06-12.69,12.44"/><path class="cls-5" d="M204.55,285.86s1.75-.34,4.73-2.84-.15-10.94-.15-10.94"/><path class="cls-5" d="M193.99,248.38s4.02-12.66,18.1-7.05c7.71,3.07,6.49,8.04,6.49,8.04"/><path class="cls-5" d="M158.69,294.83s3.41,12.42,13.49,16.37c0,0-6.69,37.88-7.3,51.72-.65,14.85,8.34,35.6,22.13,38.04,17.54,3.11,54.1-10.21,54.1-10.21"/><path class="cls-5" d="M252.77,352.07c-10.55,31.61-18.31,61.3-21.24,87.69h107.72c-.08-9.61-.38-20.25-1.15-31.47"/><path class="cls-5" d="M332.61,364.98v42.72c30.53,2.25,51.01,1.55,74.8-5.05,0,0,1.71-30.06-9.36-57-4.23-10.3-35.29-64.79-85.95-63.16s-82.87,58.5-82.87,58.5c-2.56,5.12-10.3,9.06-10.3,9.06"/><line class="cls-5" x1="218.92" y1="350.05" x2="244.87" y2="373.22"/><circle class="cls-8" cx="291.68" cy="372.54" r="38.49"/><path class="cls-6" d="M270.63,391.53l-2.86-3.81c-14.73-23.72,10.62-52.44,36.1-40.27,20.63,9.84,21.35,40.1.86,50.43-8.21,4.14-20.74,3.63-28.06-2.19-9.49-7.54-4.02-18.17,7.48-18.04,6.81.07,9.79,2.97,15.25,5.97,2.01,1.1,4.39,1.44,4.8-1.43.52-3.69-3.15-11.72-5.28-14.79-.93-1.34-1.17-1.79-2.92-1.83-2.8-.06-5.59.62-8.53.45-4.78-.29-9.83-2.51-11.44-7.35-.2-.6-.63-2.23-.09-2.67s.92.82,1.18,1.19c2.73,3.96,9.65,5.8,14.21,4.98,2.24-.4,1.52-1.47.53-2.85-1.67-2.3-6.09-6.58-3.36-9.6,1.85-2.04,4.49-.73,6.15.81,2.32,2.14,3.77,4.34,6.99,5.46,1.98.69,6.17.16,7.11,2.37,1.17,2.75-3.05,4.4-4.95,5.1-.67.25-1.67.42-2.25.73-1.23.64.04,2.4.54,3.23,2.16,3.57,4.18,6.46,5.64,10.48,1.22,3.36,2.85,10.46-1.35,12.36-3.56,1.61-6-1.88-8.23-3.96-3.67-3.43-8.71-7.29-14.04-6.82-6.47.58-9.24,7.3-4.52,11.97,3.13,3.11,8.63,4.61,12.92,5.07,22.29,2.36,32.55-23.92,19.4-40.16-9.95-12.29-28.41-12.86-39.21-1.49-8.85,9.32-9.55,24.62-2.89,35.3.09.15,1.01,1.26.82,1.37ZM294.06,351.62c-.92-.09-1.56.6-1.64,1.48-.19,1.93,3.03,6.35,4.68,7.28,1.94,1.09,4.52-.58,3.34-2.76-.48-.89-3.64-4.12-4.53-4.91-.5-.45-1.16-1.01-1.84-1.08Z"/></svg>