<?xml version="1.0" encoding="UTF-8"?><svg xmlns="http://www.w3.org/2000/svg" viewBox="0 0 400 400"><defs><style>.cls-1{fill:#e5b900;}.cls-2{fill:#fff;}.cls-3{fill:#ffe05f;}.cls-4{fill:#ffd41d;}.cls-5{fill:#eabd00;}</style></defs><g id="_レイヤー_2"><circle class="cls-1" cx="200" cy="200" r="144" transform="translate(-82.84 200) rotate(-45)"/><path class="cls-5" d="M128.75,313.35c4.54,2.86,9.27,5.46,14.15,7.76l-9.52-15.14-4.64,7.38Z"/><path class="cls-3" d="M183.13,332.82c5.53.7,11.16,1.06,16.87,1.06s11.35-.36,16.87-1.06l-16.87-26.85-16.87,26.85Z"/><path class="cls-5" d="M266.61,305.97l-9.52,15.14c4.89-2.31,9.61-4.9,14.15-7.76l-4.64-7.38Z"/><path class="cls-3" d="M118.2,305.97c3.39,2.62,6.91,5.08,10.55,7.38l4.64-7.38h-15.19Z"/><path class="cls-1" d="M133.39,305.97l9.52,15.14c12.47,5.89,26,9.92,40.22,11.7l16.87-26.85h-66.61Z"/><path class="cls-1" d="M200,305.97l16.87,26.85c14.22-1.79,27.75-5.81,40.22-11.7l9.52-15.14h-66.61Z"/><path class="cls-1" d="M266.61,305.97l4.64,7.38c3.64-2.29,7.16-4.75,10.55-7.38h-15.19Z"/><path class="cls-3" d="M133.39,252.99l-26.9,42.8c3.7,3.62,7.61,7.02,11.71,10.19h48.49l-33.31-52.99Z"/><polygon class="cls-5" points="166.69 305.97 233.31 305.97 200 252.99 166.69 305.97"/><path class="cls-3" d="M266.61,252.99l-33.31,52.99h48.49c4.1-3.17,8.01-6.57,11.71-10.19l-26.9-42.8Z"/><path class="cls-1" d="M77.03,252.99c6.97,16.16,17.04,30.68,29.46,42.8l26.9-42.8h-56.36Z"/><polygon class="cls-1" points="166.69 305.97 200 252.99 133.39 252.99 166.69 305.97"/><polygon class="cls-4" points="233.31 305.97 266.61 252.99 200 252.99 233.31 305.97"/><path class="cls-1" d="M322.97,252.99h-56.36l26.9,42.8c12.41-12.12,22.48-26.63,29.46-42.8Z"/><path class="cls-4" d="M66.78,200l-.64,1.01c.14,18.45,4.01,36.01,10.89,51.97h23.05l-33.31-52.99Z"/><polygon class="cls-5" points="100.08 252.99 166.69 252.99 133.39 200 100.08 252.99"/><polygon class="cls-1" points="166.69 252.99 233.31 252.99 200 200 166.69 252.99"/><polygon class="cls-5" points="266.61 200 233.31 252.99 299.92 252.99 266.61 200"/><path class="cls-3" d="M299.92,252.99h23.05c6.89-15.96,10.75-33.52,10.89-51.97l-.64-1.01-33.31,52.99Z"/><polygon class="cls-1" points="100.08 252.99 133.39 200 66.78 200 100.08 252.99"/><polygon class="cls-4" points="166.69 252.99 200 200 133.39 200 166.69 252.99"/><polygon class="cls-3" points="233.31 252.99 266.61 200 200 200 233.31 252.99"/><polygon class="cls-1" points="266.61 200 299.92 252.99 333.22 200 266.61 200"/><path class="cls-1" d="M333.22,200l.64,1.01c0-.34.01-.68.01-1.01h-.65Z"/><path class="cls-5" d="M73.14,157.13c-4.55,13.46-7.01,27.87-7.01,42.87h33.96l-26.94-42.87Z"/><polygon class="cls-1" points="100.08 200 166.69 200 133.39 147.01 100.08 200"/><polygon class="cls-4" points="166.69 200 233.31 200 200 147.01 166.69 200"/><polygon class="cls-3" points="266.61 147.01 233.31 200 299.92 200 266.61 147.01"/><path class="cls-1" d="M333.87,200h0c0-14.99-2.47-29.41-7.01-42.87l-26.94,42.87h33.96Z"/><path class="cls-3" d="M133.39,147.01h-56.36c-1.43,3.31-2.73,6.68-3.89,10.12l26.94,42.87,33.31-52.99Z"/><polygon class="cls-3" points="166.69 200 200 147.01 133.39 147.01 166.69 200"/><polygon class="cls-1" points="233.31 200 266.61 147.01 200 147.01 233.31 200"/><path class="cls-5" d="M299.92,200l26.94-42.87c-1.16-3.44-2.47-6.81-3.89-10.12h-56.36l33.31,52.99Z"/><path class="cls-3" d="M87.64,127.21c-4.06,6.26-7.62,12.88-10.6,19.8h23.05l-12.45-19.8Z"/><polygon class="cls-3" points="100.08 147.01 166.69 147.01 133.39 94.03 100.08 147.01"/><polygon class="cls-5" points="166.69 147.01 233.31 147.01 200 94.03 166.69 147.01"/><polygon class="cls-1" points="266.61 94.03 233.31 147.01 299.92 147.01 266.61 94.03"/><path class="cls-3" d="M322.97,147.01c-2.99-6.92-6.54-13.54-10.6-19.8l-12.45,19.8h23.05Z"/><path class="cls-5" d="M133.39,94.03h-15.19c-11.96,9.25-22.31,20.47-30.56,33.18l12.45,19.8,33.31-52.99Z"/><polygon class="cls-4" points="166.69 147.01 200 94.03 133.39 94.03 166.69 147.01"/><polygon class="cls-3" points="233.31 147.01 266.61 94.03 200 94.03 233.31 147.01"/><path class="cls-4" d="M299.92,147.01l12.45-19.8c-8.25-12.71-18.6-23.94-30.56-33.18h-15.19l33.31,52.99Z"/><path class="cls-4" d="M154.21,74.17c-13.08,4.76-25.2,11.5-36.01,19.86h48.49l-12.48-19.86Z"/><path class="cls-1" d="M233.31,94.03l-16.91-26.9c-5.37-.66-10.85-1-16.4-1s-11.02.34-16.4,1l-16.91,26.9h66.61Z"/><path class="cls-5" d="M281.8,94.03c-10.81-8.36-22.93-15.1-36.01-19.86l-12.48,19.86h48.49Z"/><path class="cls-3" d="M183.6,67.13c-10.2,1.25-20.04,3.63-29.39,7.04l12.48,19.86,16.91-26.9Z"/><path class="cls-4" d="M245.79,74.17c-9.35-3.4-19.2-5.79-29.39-7.04l16.91,26.9,12.48-19.86Z"/></g><g id="_レイヤー_4"><path class="cls-2" d="M199.44,265.91c-11.13,0-20.59-1.93-28.39-5.8-7.8-3.87-13.85-9.46-18.14-16.78-4.29-7.32-6.62-16.05-6.98-26.21-.12-5.2-.18-10.79-.18-16.78s.06-11.64.18-16.96c.36-10.04,2.69-18.62,6.98-25.76,4.29-7.13,10.4-12.63,18.32-16.51,7.92-3.87,17.32-5.8,28.21-5.8,8.83,0,16.57,1.18,23.22,3.54,6.65,2.36,12.18,5.38,16.6,9.07,4.41,3.69,7.74,7.65,9.98,11.88,2.24,4.23,3.42,8.16,3.54,11.79.12,1.09-.18,2-.91,2.72s-1.7,1.09-2.9,1.09h-18.68c-1.21,0-2.12-.24-2.72-.73-.61-.48-1.15-1.21-1.63-2.18-.97-2.54-2.48-5.05-4.54-7.53-2.06-2.48-4.84-4.56-8.34-6.26-3.51-1.69-8.04-2.54-13.6-2.54-8.23,0-14.78,2.18-19.68,6.53s-7.53,11.55-7.89,21.59c-.36,10.52-.36,21.16,0,31.93.36,10.28,3.05,17.66,8.07,22.13,5.02,4.48,11.64,6.71,19.86,6.71,5.44,0,10.31-.97,14.6-2.9,4.29-1.93,7.68-4.96,10.16-9.07,2.48-4.11,3.72-9.37,3.72-15.78v-5.62h-22.13c-1.21,0-2.24-.42-3.08-1.27-.85-.84-1.27-1.93-1.27-3.27v-9.61c0-1.33.42-2.42,1.27-3.27s1.87-1.27,3.08-1.27h43.35c1.33,0,2.39.42,3.17,1.27.79.85,1.18,1.94,1.18,3.27v19.05c0,10.16-2.21,18.93-6.62,26.3-4.42,7.38-10.7,13.06-18.87,17.05-8.16,3.99-17.81,5.99-28.93,5.99Z"/></g></svg>