<svg width="190" height="32" viewBox="0 0 190 32" fill="none" xmlns="http://www.w3.org/2000/svg">
<path d="M29.1886 19.2746L35.0341 16.6936C35.9218 16.3016 36.3162 15.2809 35.915 14.4136L31.618 5.12423C31.2168 4.25699 30.172 3.87168 29.2844 4.26362L23.4388 6.84468C22.5512 7.23662 22.1568 8.25738 22.558 9.12462L26.855 18.414C27.2562 19.2812 28.301 19.6666 29.1886 19.2746Z" fill="#FAEE00"/>
<path d="M21.4716 6.25792C21.3586 5.38099 21.8587 4.50815 22.7416 4.17905C23.0282 4.07276 23.3253 4.04005 23.6119 4.06049C23.6894 3.17539 24.2689 2.36592 25.1748 2.0266C26.0326 1.70567 26.9595 1.88964 27.6186 2.42724C27.8194 2.08792 28.127 1.80788 28.5308 1.65661C29.4472 1.31524 30.4661 1.75064 30.8406 2.62961C31.5457 2.6521 32.2005 3.07932 32.4683 3.76409C32.824 4.67577 32.3574 5.69579 31.4264 6.04328C30.9996 6.20273 30.5519 6.18637 30.1543 6.04328C29.9849 6.51752 29.6187 6.92021 29.0999 7.1144C28.7295 7.2534 28.3446 7.25953 27.9889 7.1655C27.9219 7.88912 27.4533 8.54937 26.7126 8.82533C25.9448 9.1115 25.11 8.90709 24.566 8.36949C24.4007 8.95002 23.9718 9.45083 23.3525 9.68386C22.3148 10.0702 21.1536 9.56325 20.7581 8.55142C20.4255 7.69902 20.7456 6.76486 21.4716 6.25792Z" fill="white"/>
<path d="M29.6124 15.9286C31.5051 15.9286 33.0395 14.4295 33.0395 12.5803C33.0395 10.7311 31.5051 9.23206 29.6124 9.23206C27.7197 9.23206 26.1854 10.7311 26.1854 12.5803C26.1854 14.4295 27.7197 15.9286 29.6124 15.9286Z" fill="#007D4F"/>
<path d="M28.6354 14.8555L28.2608 14.6613C26.1749 13.3387 27.131 10.1376 29.6459 10.154C31.6816 10.1663 32.8847 12.5211 31.6251 14.093C31.1209 14.7226 30.0915 15.1457 29.2798 14.9597C28.2295 14.7165 28.2671 13.678 29.2003 13.2631C29.7526 13.0178 30.102 13.1343 30.6564 13.1691C30.8594 13.1813 31.0644 13.12 30.9891 12.8788C30.8908 12.5681 30.2924 12.0714 30.0037 11.9099C29.8781 11.8383 29.8426 11.8118 29.7003 11.8731C29.4722 11.9712 29.2735 12.1286 29.0287 12.2247C28.6333 12.378 28.1416 12.3903 27.8278 12.0693C27.7901 12.0305 27.6918 11.9181 27.719 11.8629C27.7462 11.8077 27.8236 11.8935 27.8591 11.914C28.2295 12.1245 28.8571 12.0141 29.194 11.7791C29.3593 11.6646 29.2609 11.6074 29.1291 11.5358C28.9073 11.4173 28.3885 11.2435 28.4952 10.9042C28.5663 10.6752 28.8299 10.6814 29.0224 10.7407C29.2902 10.8245 29.4911 10.943 29.7924 10.9124C29.9786 10.894 30.2966 10.6977 30.4556 10.8367C30.6544 11.0105 30.3761 11.2967 30.2485 11.4213C30.2045 11.4663 30.1292 11.5174 30.0936 11.5624C30.0183 11.6585 30.1878 11.7504 30.2589 11.7975C30.5686 11.9998 30.8406 12.1511 31.1105 12.4148C31.3364 12.6335 31.736 13.1323 31.4703 13.4389C31.2444 13.6985 30.9159 13.5125 30.6564 13.4307C30.2296 13.2958 29.6794 13.1793 29.2672 13.4123C28.7672 13.6964 28.7985 14.3281 29.3572 14.5223C29.7275 14.651 30.2275 14.5672 30.5895 14.4425C32.4767 13.8027 32.3072 11.3539 30.6313 10.5608C29.3634 9.96185 27.855 10.5996 27.4156 11.8935C27.0557 12.9544 27.5788 14.185 28.5203 14.7819C28.5328 14.79 28.65 14.8432 28.6374 14.8595L28.6354 14.8555ZM29.012 10.8449C28.9345 10.8715 28.9094 10.9492 28.9345 11.0227C28.9931 11.1822 29.4199 11.4111 29.5873 11.4234C29.7861 11.4377 29.9304 11.2108 29.7526 11.082C29.6794 11.0289 29.3028 10.8919 29.2023 10.8633C29.1459 10.8469 29.0705 10.8265 29.014 10.8469L29.012 10.8449Z" fill="white"/>
<path d="M36.1967 14.2892L32.2884 5.84084C32.462 5.66709 32.6085 5.46881 32.7131 5.23987C32.9433 4.73497 32.96 4.17489 32.7571 3.65772C32.4746 2.9382 31.8155 2.43943 31.0456 2.3454C30.5518 1.42146 29.4346 0.99833 28.422 1.37649C28.0767 1.50527 27.7776 1.7199 27.5453 1.99995C26.813 1.53798 25.8904 1.43781 25.066 1.74648C24.1622 2.08375 23.522 2.84008 23.3441 3.75584C23.0972 3.76606 22.8587 3.81308 22.6328 3.89893C21.6913 4.25052 21.1013 5.14993 21.1494 6.12293C20.3962 6.73821 20.1158 7.75822 20.4694 8.66172C20.6912 9.2259 21.1243 9.67356 21.6892 9.9209C21.9926 10.0517 22.3127 10.1192 22.6349 10.1192C22.6495 10.1192 22.6621 10.1151 22.6767 10.1151L23.0449 10.9102L21.3168 11.6727C20.7205 11.9364 20.4903 12.7029 20.8042 13.3836L22.955 18.0319C23.1035 18.3508 23.3483 18.6063 23.6475 18.7515C23.8212 18.8353 24.0011 18.8782 24.1768 18.8782C24.3254 18.8782 24.4718 18.8476 24.6099 18.7883L26.3381 18.0258L26.5766 18.5409C26.8047 19.0336 27.2147 19.4097 27.7336 19.6018C27.9721 19.6897 28.219 19.7327 28.4659 19.7327C28.7567 19.7327 29.0454 19.6713 29.3174 19.5528L35.1631 16.9711C36.205 16.5111 36.6695 15.3092 36.1988 14.2912L36.1967 14.2892ZM21.0469 8.443C20.7728 7.73982 21.0197 6.94262 21.6515 6.50313C21.7436 6.43772 21.7938 6.32938 21.7791 6.219C21.6808 5.45655 22.1223 4.73293 22.8546 4.45902C23.0408 4.38952 23.2395 4.35477 23.4467 4.35477C23.4948 4.35477 23.5408 4.35477 23.591 4.3609C23.7584 4.37317 23.9069 4.25052 23.9216 4.08494C23.9927 3.27752 24.5158 2.59683 25.2857 2.30861C26.0075 2.03878 26.8256 2.17165 27.4219 2.65815C27.4909 2.71539 27.5851 2.73787 27.675 2.72356C27.765 2.70721 27.8424 2.65406 27.8884 2.57639C28.0642 2.27795 28.3257 2.05718 28.6437 1.93658C29.4032 1.65449 30.2443 2.00812 30.5581 2.744C30.6042 2.85234 30.7129 2.92593 30.8343 2.93002C31.4369 2.95046 31.9662 3.3184 32.1838 3.87031C32.4788 4.62459 32.0917 5.47086 31.3197 5.75908C30.9808 5.88581 30.6167 5.88377 30.2652 5.75703C30.1878 5.72841 30.102 5.7325 30.0267 5.76725C29.9514 5.802 29.8928 5.86537 29.8656 5.941C29.717 6.35391 29.4011 6.67688 28.9931 6.83019C28.7023 6.93853 28.3822 6.95488 28.0726 6.87312C27.9847 6.85063 27.8905 6.86494 27.8152 6.91809C27.7399 6.96919 27.6918 7.04891 27.6834 7.13885C27.6248 7.77866 27.2106 8.31831 26.6038 8.54521C25.9762 8.78028 25.2627 8.62901 24.7878 8.15887C24.7104 8.08119 24.5974 8.05053 24.4907 8.07915C24.384 8.10572 24.3003 8.18749 24.271 8.29174C24.1245 8.8089 23.75 9.21568 23.2437 9.40374C22.819 9.56113 22.3587 9.54887 21.9423 9.36899C21.5281 9.1891 21.2101 8.86 21.0469 8.44504V8.443ZM25.3757 15.949L24.5304 16.3231C24.4844 16.3435 24.4342 16.3292 24.4028 16.3149C24.34 16.2863 24.2856 16.229 24.2542 16.1595L23.1014 13.6678C23.068 13.5962 23.0617 13.5206 23.0805 13.4552C23.091 13.4204 23.1119 13.3755 23.16 13.355L24.0053 12.9809L25.3778 15.949H25.3757ZM24.3526 18.2343C24.225 18.2895 24.0722 18.2813 23.9216 18.2077C23.75 18.1239 23.6057 17.9727 23.5178 17.7805L21.367 13.1322C21.1954 12.7622 21.2896 12.3452 21.5699 12.2205L23.2981 11.4581L23.7479 12.429L22.9027 12.8031C22.7018 12.891 22.5491 13.0668 22.4842 13.2855C22.4236 13.4899 22.4424 13.7127 22.5344 13.9151L23.6873 16.4069C23.7814 16.6092 23.9404 16.7707 24.1371 16.8607C24.2459 16.9097 24.363 16.9363 24.4781 16.9363C24.5827 16.9363 24.6873 16.9159 24.7836 16.8729L25.6288 16.5009L26.0787 17.4719L24.3505 18.2343H24.3526ZM34.9058 16.4171L29.0601 18.9988C28.7065 19.1562 28.3111 19.1664 27.9491 19.0336C27.5851 18.8987 27.2984 18.635 27.1373 18.2895L23.7354 10.9368L23.3086 10.0129C23.3609 9.99653 23.4132 9.98835 23.4655 9.96996C24.0136 9.76554 24.4467 9.37716 24.7041 8.87227C25.3234 9.27905 26.1142 9.37716 26.8256 9.11143C27.5495 8.8416 28.0726 8.24677 28.2462 7.52111C28.5747 7.55586 28.9032 7.51293 29.2128 7.39846C29.6982 7.21653 30.0957 6.86494 30.3322 6.41115C30.736 6.49905 31.1565 6.47247 31.5394 6.32938C31.6252 6.29668 31.7026 6.25375 31.7821 6.21083L35.636 14.5406C35.9665 15.254 35.6401 16.0982 34.91 16.4191L34.9058 16.4171Z" fill="#7FBE26"/>
<path d="M16.5088 8.94591C17.1559 8.94591 17.6805 8.4334 17.6805 7.8012C17.6805 7.169 17.1559 6.65649 16.5088 6.65649C15.8617 6.65649 15.3372 7.169 15.3372 7.8012C15.3372 8.4334 15.8617 8.94591 16.5088 8.94591Z" fill="white"/>
<path d="M11.4393 13.7475C14.3674 13.7475 16.741 11.4284 16.741 8.56773C16.741 5.70701 14.3674 3.38794 11.4393 3.38794C8.51129 3.38794 6.13763 5.70701 6.13763 8.56773C6.13763 11.4284 8.51129 13.7475 11.4393 13.7475Z" fill="white"/>
<path d="M6.9285 8.15691C6.72974 8.26321 6.4996 8.32249 6.2569 8.32249C5.47859 8.32249 4.84674 7.70516 4.84674 6.94475C4.84674 6.18434 5.47859 5.56702 6.2569 5.56702C6.54981 5.56702 6.81971 5.65287 7.04567 5.80209" fill="white"/>
<path d="M21.0029 13.0198C21.0029 13.0198 20.4715 11.9058 19.6471 12.3228C18.8228 12.7398 19.0425 13.4593 18.7538 14.3322C18.7538 14.3322 18.6282 21.4518 14.5149 23.6329C10.4016 25.816 8.437 24.1378 6.74858 24.1378L2.42395 27.4554C2.42395 27.4554 8.40144 33.2791 18.1617 28.7309C24.8401 25.6177 23.6956 18.263 23.6956 18.263C25.9971 17.9789 24.771 15.8448 24.771 15.8448C25.3338 14.1789 24.0157 14.0378 24.0157 14.0378C22.9215 11.7382 21.7352 12.1695 21.0008 13.0198H21.0029Z" fill="white"/>
<path d="M13.5881 5.77958C13.4981 5.77958 13.4081 5.74688 13.3391 5.67942C13.201 5.54451 13.201 5.32784 13.3391 5.19292C13.4123 5.12138 13.4353 5.03348 13.4249 4.97829C13.4186 4.94559 13.404 4.93128 13.3809 4.9231C13.2345 4.85973 13.0462 5.05392 12.9771 5.17248C12.8809 5.33805 12.6654 5.39325 12.4959 5.29922C12.3265 5.20519 12.27 4.99464 12.3662 4.82907C12.6236 4.39367 13.1508 4.0707 13.6676 4.29351C13.9061 4.39776 14.0714 4.60013 14.1195 4.8536C14.1739 5.14182 14.0672 5.45866 13.8391 5.68147C13.7701 5.74892 13.6801 5.78163 13.5902 5.78163L13.5881 5.77958Z" fill="#7FBE26"/>
<path d="M18.0319 7.80118C18.0319 7.01011 17.3959 6.36826 16.5988 6.32124C15.7159 4.3916 13.7366 3.04248 11.4373 3.04248C9.60865 3.04248 7.91813 3.89283 6.85528 5.33189C6.66489 5.26444 6.46194 5.2256 6.25481 5.2256C5.28402 5.2256 4.49316 5.99827 4.49316 6.94674C4.49316 7.20226 4.55383 7.44346 4.65635 7.66014C4.63961 7.67649 4.62078 7.69284 4.60823 7.70511C4.36762 7.94018 4.12074 8.18139 3.89478 8.44508C3.76088 8.60043 3.61233 8.79054 3.52027 9.02152C3.34034 9.47123 3.39892 10.0129 3.68347 10.5076C4.08936 11.2128 4.8844 11.6891 5.71292 11.7198C5.74222 11.7198 5.7736 11.7198 5.80289 11.7198C6.10208 11.7198 6.39918 11.6625 6.67953 11.5562C7.68171 13.0852 9.43081 14.0889 11.4373 14.0889C14.3392 14.0889 16.7369 11.9405 17.0528 9.18505C17.6302 8.96837 18.0299 8.41851 18.0299 7.7971L18.0319 7.80118ZM11.4393 13.4041C9.69652 13.4041 8.17757 12.5394 7.29465 11.2189C7.50387 11.0636 7.69008 10.8796 7.83444 10.667C8.1148 10.2582 8.31356 9.58979 7.95161 9.06036C7.78214 8.81302 7.53735 8.66789 7.32185 8.54115C7.25908 8.50436 7.19631 8.46757 7.13773 8.42668C7.27372 8.32448 7.32185 8.14459 7.23816 7.99333C7.1461 7.82571 6.93269 7.76439 6.76113 7.85433C6.60631 7.93814 6.43683 7.97902 6.2569 7.97902C5.67317 7.97902 5.20033 7.51501 5.20033 6.9447C5.20033 6.37439 5.67526 5.91242 6.2569 5.91242C6.46822 5.91242 6.67326 5.97374 6.849 6.08821C7.0101 6.19451 7.22979 6.15363 7.33858 5.99623C7.38043 5.93491 7.39298 5.86541 7.39298 5.79795C8.32193 4.50402 9.81578 3.73135 11.4414 3.73135C13.9772 3.73135 16.0715 5.60376 16.3561 8.00764C14.6174 8.62087 11.1778 7.93814 10.1777 6.72802C10.0564 6.58085 9.83461 6.55836 9.68188 6.67692C9.53124 6.79752 9.50822 7.01215 9.62957 7.16138C10.5104 8.22636 12.8056 8.92545 14.7597 8.92545C15.3476 8.92545 15.9042 8.86004 16.3833 8.72308C16.2975 11.3171 14.1174 13.4021 11.4414 13.4021L11.4393 13.4041ZM17.0821 8.3674C17.0821 8.32857 17.0779 8.28973 17.0758 8.25089C17.0758 8.23045 17.0758 8.21001 17.0716 8.18752C17.0444 7.8114 16.9816 7.44551 16.8812 7.09392C17.1448 7.22679 17.3269 7.49252 17.3269 7.80118C17.3269 8.0199 17.2327 8.22023 17.0821 8.3674Z" fill="#7FBE26"/>
<path d="M25.1497 15.8141C25.3317 15.1947 25.2962 14.6837 25.0409 14.2953C24.8129 13.9478 24.476 13.8006 24.2605 13.7373C23.7877 12.8133 23.1977 12.3002 22.5072 12.2103C21.9821 12.1408 21.5155 12.3309 21.1494 12.5742C20.9736 12.3391 20.7016 12.059 20.3418 11.9425C20.0593 11.8526 19.7622 11.8771 19.486 12.0161C18.7579 12.3861 18.6638 12.9625 18.5738 13.5206C18.5634 13.586 18.5508 13.6535 18.5383 13.7189C16.5276 14.2769 14.5589 14.4302 12.9688 14.5488C12.3955 14.5917 11.8536 14.6326 11.3954 14.6878C9.94968 14.8615 3.56421 16.4948 1.03053 20.7792C-0.28339 23.0053 -0.341972 25.5543 0.861057 28.3588C0.877795 28.4426 0.919639 28.5224 0.98659 28.5735C1.0389 28.6143 1.08702 28.6491 1.16443 28.6491C1.32762 28.6491 1.6289 28.4937 2.41349 27.9091C2.94282 28.3568 4.34461 29.4115 6.52053 30.1229C7.66707 30.497 9.13372 30.8015 10.8724 30.8015C12.9813 30.8015 15.4899 30.3539 18.3123 29.0375C24.3233 26.237 24.204 20.0474 24.0785 18.543C24.6643 18.4101 25.0702 18.1321 25.2857 17.7151C25.6497 17.0099 25.3087 16.1432 25.1476 15.81L25.1497 15.8141ZM24.6559 17.4105C24.5137 17.6845 24.1747 17.8562 23.6517 17.9216C23.5575 17.9338 23.4717 17.9808 23.4152 18.0544C23.3588 18.128 23.3336 18.2221 23.3483 18.314C23.3922 18.6043 24.3693 25.4562 18.011 28.4201C9.70071 32.2917 4.2944 28.5632 2.98048 27.4819C3.79645 26.8503 4.97856 25.8977 6.71301 24.477C6.72556 24.477 6.73602 24.4852 6.75067 24.4852C7.15656 24.4852 7.60011 24.5977 8.11062 24.7285C8.78431 24.9002 9.57099 25.1005 10.5355 25.1005C11.6507 25.1005 13.0022 24.8327 14.6844 23.9394C18.7893 21.7604 19.0864 15.0986 19.1053 14.3934C19.191 14.1195 19.2329 13.862 19.2685 13.6351C19.3563 13.0852 19.4128 12.8338 19.8082 12.6334C19.917 12.5782 20.0133 12.568 20.1179 12.6007C20.3125 12.6621 20.4903 12.8603 20.6096 13.028C20.551 13.0893 20.4987 13.1445 20.4589 13.1915C20.3334 13.3366 20.3522 13.5533 20.5008 13.6759C20.6493 13.7986 20.8711 13.7802 20.9966 13.6351C21.164 13.4409 21.7561 12.8133 22.411 12.8971C23.0031 12.9748 23.4362 13.6412 23.6956 14.187C23.7458 14.2933 23.8546 14.3689 23.9739 14.3832C23.9781 14.3832 24.2898 14.4261 24.4509 14.6776C24.5994 14.9085 24.5932 15.2765 24.4362 15.7405C24.4049 15.8325 24.4153 15.9326 24.4634 16.0165C24.5974 16.2515 24.8924 16.9608 24.6559 17.4146V17.4105Z" fill="#7FBE26"/>
<path d="M170.928 6.30289C170.861 5.29923 170.319 4.3569 169.658 3.73753C168.333 2.49879 166.203 2.2351 164.481 3.09772C164.278 3.19993 164.021 3.3471 163.835 3.58422C163.463 4.05641 163.55 4.66556 164.059 5.13979C164.199 5.27062 164.423 5.26653 164.557 5.12753C164.586 5.09687 164.607 5.06212 164.624 5.02532L169.561 7.08375L169.478 7.23501C169.417 7.34539 169.421 7.48031 169.492 7.5866L170.735 9.4447C170.802 9.54282 170.913 9.60005 171.03 9.60005C171.057 9.60005 171.087 9.59596 171.116 9.58983L172.032 9.36702C172.204 9.32614 172.319 9.16466 172.298 8.99295C172.122 7.56207 171.382 6.70354 170.928 6.30289Z" fill="#7FBE26"/>
<path d="M188.839 6.57275C188.592 4.31195 187.245 5.24407 187.245 5.24407C187.245 5.24407 187.262 3.92766 186.205 3.94401C185.54 3.99307 185.404 4.34466 185.404 4.34466C185.404 4.34466 185.301 3.74573 184.397 3.81115C183.493 3.8786 183.085 6.08216 183.085 6.08216V6.16188C182.705 6.00857 182.301 6.09033 181.943 6.31928C181.119 6.8487 182.51 9.2117 182.083 11.031C181.248 14.602 177.336 16.9548 175.675 17.8093L176.305 21.1882L176.175 21.3681L176.671 23.1546L176.763 23.6493L176.798 23.6145L177.058 24.5487C180.658 22.9584 189.58 17.8583 188.839 6.5707V6.57275Z" fill="white"/>
<path d="M165.774 4.76974C164.649 4.76974 163.624 5.09885 162.766 5.68346C161.678 4.88626 161.056 5.77954 161.715 6.61558L161.665 6.67895C160.883 7.58245 160.473 8.67196 160.473 9.94749C160.473 12.8093 162.847 15.1273 165.774 15.1273C168.701 15.1273 171.076 12.8072 171.076 9.94749C171.076 7.08777 168.701 4.7677 165.774 4.7677V4.76974Z" fill="white"/>
<path d="M170.25 9.00515C170.486 8.8498 170.771 8.75781 171.078 8.75781C171.896 8.75781 172.56 9.4058 172.56 10.205C172.56 11.0043 171.896 11.6523 171.078 11.6523C170.524 11.6523 170.041 11.3538 169.787 10.9144" fill="white"/>
<path d="M161.688 8.04245C161.688 8.04245 162.661 8.06493 163.368 8.1978C164.128 8.34089 163.182 10.152 162.529 10.1377C161.877 10.1234 161.69 8.04041 161.69 8.04041L161.688 8.04245Z" fill="#7FBE26"/>
<path d="M161.751 8.74356C161.751 8.74356 162.343 9.37519 163.617 8.93571C163.617 8.93571 163.898 8.31839 163.013 8.29386C162.13 8.27137 161.676 8.19165 161.676 8.19165L161.751 8.74356Z" fill="white"/>
<path d="M153.754 4.32266L147.369 3.72088C146.4 3.6295 145.538 4.32335 145.444 5.27065L144.443 15.4176C144.349 16.3648 145.059 17.2069 146.029 17.2982L152.414 17.9C153.384 17.9914 154.245 17.2975 154.339 16.3503L155.341 6.20335C155.434 5.25605 154.724 4.41404 153.754 4.32266Z" fill="#FAEE00"/>
<path d="M155.422 3.14671C155.24 2.28001 154.479 1.61362 153.533 1.57887C153.225 1.56865 152.934 1.62998 152.671 1.7424C152.305 0.928846 151.491 0.344229 150.52 0.309479C149.602 0.276773 148.786 0.742831 148.34 1.45827C148.039 1.20071 147.654 1.0331 147.223 1.01674C146.244 0.981993 145.421 1.71583 145.359 2.66634C144.699 2.90959 144.22 3.52078 144.193 4.25258C144.155 5.22762 144.936 6.04527 145.932 6.08206C146.388 6.09842 146.806 5.94306 147.135 5.67937C147.451 6.07593 147.932 6.34167 148.486 6.36211C148.882 6.37642 149.25 6.26195 149.556 6.06162C149.857 6.72596 150.52 7.20224 151.313 7.23086C152.135 7.25947 152.857 6.80159 153.194 6.12295C153.541 6.62171 154.112 6.96103 154.778 6.98352C155.887 7.0244 156.82 6.17814 156.859 5.09271C156.893 4.18103 156.282 3.39609 155.426 3.14671H155.422Z" fill="white"/>
<path d="M171.206 8.42673C170.513 6.06168 168.319 4.42639 165.774 4.42639C164.695 4.42639 163.661 4.71666 162.768 5.27061C162.123 4.88836 161.621 5.01305 161.351 5.27879C161.029 5.59767 161.008 6.11279 161.28 6.5952C160.51 7.54367 160.119 8.66998 160.119 9.94959C160.119 12.9953 162.655 15.4748 165.774 15.4748C168.101 15.4748 170.174 14.0848 171.026 11.9917C171.043 11.9917 171.059 11.9958 171.076 11.9958C172.087 11.9958 172.909 11.1924 172.909 10.2051C172.909 9.2178 172.154 8.49418 171.206 8.42673ZM171.078 11.3069C170.67 11.3069 170.294 11.0902 170.095 10.7448C169.999 10.5792 169.783 10.5199 169.616 10.6139C169.446 10.708 169.386 10.9165 169.482 11.082C169.679 11.4234 169.982 11.685 170.335 11.8384C169.566 13.6147 167.777 14.788 165.779 14.788C163.048 14.788 160.828 12.6192 160.828 9.95164C160.828 8.77832 161.201 7.75217 161.948 6.89364L161.998 6.83027C162.096 6.70762 162.096 6.53387 161.998 6.40918C161.762 6.1087 161.772 5.84705 161.856 5.76529C161.946 5.67535 162.218 5.71418 162.557 5.96357C162.678 6.05351 162.845 6.05555 162.969 5.9697C163.789 5.41165 164.76 5.1173 165.777 5.1173C167.965 5.1173 169.858 6.49708 170.499 8.51054C170.342 8.56164 170.191 8.63114 170.053 8.72108C169.892 8.82737 169.85 9.04201 169.959 9.1994C170.068 9.3568 170.287 9.39768 170.448 9.29139C170.635 9.16874 170.854 9.10333 171.08 9.10333C171.702 9.10333 172.208 9.598 172.208 10.2051C172.208 10.8122 171.702 11.3069 171.08 11.3069H171.078Z" fill="#7FBE26"/>
<path d="M162.534 10.4831H162.519C161.644 10.4647 161.4 8.79053 161.335 8.07305C161.326 7.97493 161.36 7.87886 161.429 7.80731C161.498 7.73577 161.594 7.70102 161.695 7.69897C161.736 7.69897 162.705 7.7235 163.433 7.8625C163.743 7.92178 164.053 8.17934 163.994 8.72921C163.919 9.4283 163.237 10.4851 162.534 10.4851V10.4831ZM162.086 8.40215C162.19 9.09306 162.393 9.72061 162.552 9.79828C162.603 9.79419 162.831 9.63884 163.046 9.28725C163.293 8.88456 163.318 8.57999 163.287 8.51867C162.904 8.4553 162.423 8.42055 162.086 8.40215Z" fill="#7FBE26"/>
<path d="M149.796 15.1294C151.689 15.1294 153.223 13.6303 153.223 11.7811C153.223 9.93193 151.689 8.43286 149.796 8.43286C147.903 8.43286 146.369 9.93193 146.369 11.7811C146.369 13.6303 147.903 15.1294 149.796 15.1294Z" fill="#007D4F"/>
<path d="M147.61 13.0116L147.432 12.6355C146.591 10.3502 149.334 8.36738 151.326 9.86572C152.939 11.0779 152.439 13.6657 150.461 14.1727C149.671 14.375 148.587 14.1052 148.057 13.4756C147.371 12.6621 148.045 11.8567 149.045 12.0775C149.637 12.2083 149.842 12.5088 150.263 12.8644C150.418 12.9953 150.618 13.0668 150.706 12.8297C150.821 12.5251 150.65 11.7749 150.522 11.4744C150.466 11.3436 150.453 11.3007 150.302 11.2659C150.06 11.2087 149.804 11.2169 149.551 11.1494C149.141 11.037 148.742 10.757 148.691 10.3154C148.685 10.2602 148.677 10.1151 148.733 10.0865C148.79 10.0579 148.798 10.1723 148.815 10.2091C148.978 10.5955 149.547 10.8776 149.959 10.8919C150.162 10.898 150.12 10.7937 150.058 10.6588C149.955 10.4319 149.65 9.98836 149.945 9.78191C150.143 9.64291 150.348 9.80235 150.466 9.96179C150.627 10.1866 150.713 10.3992 150.972 10.5525C151.131 10.6466 151.505 10.6793 151.547 10.8837C151.598 11.1392 151.2 11.2026 151.022 11.2271C150.959 11.2353 150.869 11.2332 150.813 11.2475C150.694 11.2802 150.771 11.452 150.8 11.5317C150.922 11.8751 151.043 12.1572 151.095 12.5251C151.139 12.8338 151.15 13.4674 150.748 13.5533C150.407 13.6248 150.261 13.2835 150.106 13.0668C149.851 12.707 149.484 12.288 149.009 12.2308C148.436 12.1613 148.07 12.6825 148.392 13.167C148.608 13.4879 149.058 13.7168 149.424 13.8333C151.321 14.4404 152.704 12.3902 151.861 10.7692C151.223 9.54275 149.627 9.15845 148.474 9.92908C147.53 10.5607 147.183 11.8506 147.564 12.8808C147.568 12.8951 147.629 13.0055 147.61 13.0116ZM150.395 10.0436C150.317 10.019 150.248 10.066 150.223 10.1396C150.171 10.3011 150.369 10.7345 150.495 10.8448C150.643 10.9736 150.899 10.8776 150.838 10.6711C150.813 10.5873 150.597 10.2541 150.535 10.1703C150.499 10.1233 150.453 10.064 150.395 10.0456V10.0436Z" fill="white"/>
<path d="M189.191 6.53794C189.088 5.60582 188.785 5.0212 188.289 4.80248C188.034 4.69005 187.768 4.69619 187.54 4.74933C187.479 4.48973 187.36 4.18107 187.117 3.946C186.881 3.71501 186.565 3.59236 186.18 3.60258C185.87 3.62507 185.644 3.70479 185.479 3.79882C185.266 3.59237 184.914 3.42884 184.372 3.46972C183.416 3.53922 182.958 5.05186 182.797 5.74686C182.449 5.72029 182.09 5.81432 181.751 6.03304C181.123 6.43573 181.318 7.32492 181.539 8.35311C181.721 9.19529 181.928 10.1499 181.74 10.9553C181.004 14.1093 177.721 16.2965 175.947 17.2716C175.943 17.2328 175.941 17.2 175.941 17.1796C175.941 17.0733 175.89 16.9711 175.802 16.9057C175.715 16.8403 175.602 16.8178 175.497 16.8464C175.472 16.8525 172.909 17.521 171.22 17.2818C169.666 17.0631 168.038 16.6522 165.977 16.133C165.565 16.0288 165.138 15.9204 164.689 15.81C164.314 15.7181 163.904 15.6281 163.377 15.53C163.144 15.4993 162.896 15.4564 162.632 15.4135C160.427 15.0455 157.138 14.4977 154.186 18.1771L154.064 17.5802C154.391 17.2511 154.6 16.8342 154.646 16.3722L155.554 7.16752C156.451 6.88135 157.125 6.07392 157.163 5.09888C157.198 4.13201 156.598 3.25509 155.682 2.90963C155.407 1.97138 154.552 1.30909 153.543 1.27229C153.303 1.26412 153.06 1.29478 152.824 1.36223C152.353 0.550719 151.499 0.0376459 150.53 0.00289597C149.645 -0.0379864 148.809 0.356528 148.267 1.02495C147.953 0.830763 147.601 0.722425 147.231 0.71016C146.145 0.671322 145.231 1.42356 145.068 2.45379C144.369 2.78698 143.909 3.46767 143.881 4.23626C143.86 4.78817 144.061 5.31555 144.446 5.71825C144.62 5.90222 144.825 6.0453 145.047 6.15364L144.135 15.3828C144.026 16.4948 144.861 17.4862 145.999 17.5925L146.921 17.6804C147.003 19.1767 147.593 27.2714 150.729 27.2714C150.742 27.2714 150.754 27.2714 150.765 27.2714C153.365 27.2203 155.522 25.9918 156.228 25.5421C157.272 29.3441 160.745 31.1041 164.011 31.1041C167.603 31.1041 170.44 29.571 172.005 26.787C173.587 26.7052 176.01 26.4885 177.298 25.9243C177.447 25.8589 177.531 25.7015 177.499 25.5441C177.451 25.305 177.401 25.0535 177.351 24.796C181.276 23.0319 189.933 17.8317 189.191 6.5318V6.53794ZM144.898 5.31147C144.626 5.02529 144.484 4.65326 144.499 4.26283C144.522 3.67413 144.9 3.15697 145.465 2.94847C145.578 2.90554 145.656 2.80334 145.664 2.68682C145.716 1.89166 146.382 1.28456 147.21 1.31931C147.549 1.33157 147.869 1.45831 148.135 1.68725C148.204 1.74653 148.294 1.7731 148.386 1.75879C148.476 1.74448 148.555 1.69338 148.604 1.61775C149.007 0.971807 149.738 0.593646 150.51 0.614087C151.336 0.644749 152.056 1.12307 152.388 1.86713C152.457 2.01839 152.637 2.08789 152.794 2.02248C153.035 1.92232 153.282 1.87531 153.524 1.88348C154.307 1.9121 154.964 2.45788 155.123 3.21011C155.146 3.31845 155.228 3.40635 155.336 3.43906C156.079 3.65573 156.577 4.33233 156.55 5.08457C156.514 6.00033 155.719 6.71577 154.788 6.68307C154.246 6.66263 153.759 6.39689 153.449 5.95332C153.386 5.86338 153.284 5.81023 153.171 5.82249C153.06 5.83067 152.964 5.89404 152.916 5.99216C152.621 6.58699 151.991 6.9488 151.323 6.93041C150.675 6.90588 150.106 6.52771 149.838 5.93901C149.8 5.85724 149.729 5.79592 149.641 5.77139C149.612 5.76322 149.585 5.75913 149.555 5.75913C149.495 5.75913 149.434 5.77548 149.384 5.81023C149.118 5.98398 148.815 6.07392 148.499 6.05961C148.064 6.04326 147.656 5.8368 147.38 5.49339C147.329 5.43002 147.252 5.38914 147.17 5.37892C147.085 5.3687 147.005 5.39323 146.94 5.44433C146.649 5.67532 146.302 5.79183 145.944 5.77753C145.545 5.76322 145.174 5.59764 144.902 5.31147H144.898ZM146.059 16.9956C145.262 16.92 144.674 16.225 144.752 15.4462L145.649 6.34579C145.737 6.3601 145.827 6.37849 145.917 6.38054C146.323 6.39894 146.733 6.28855 147.087 6.07801C147.461 6.43369 147.951 6.64219 148.472 6.66058C148.806 6.67489 149.129 6.60744 149.428 6.47252C149.834 7.10416 150.524 7.50276 151.298 7.52933C151.328 7.52933 151.355 7.52933 151.384 7.52933C152.114 7.52933 152.794 7.19205 153.229 6.63401C153.637 7.03057 154.177 7.26155 154.763 7.28199C154.817 7.28199 154.872 7.28199 154.924 7.27995L154.033 16.317C153.955 17.0958 153.242 17.6722 152.447 17.5946L146.061 16.9936L146.059 16.9956ZM156.056 24.8287C156.033 24.845 153.639 26.5314 150.75 26.5887C150.744 26.5887 150.738 26.5887 150.729 26.5887C148.823 26.5887 147.831 21.2781 147.629 17.752L152.382 18.1996C152.449 18.2057 152.518 18.2098 152.585 18.2098C152.882 18.2098 153.167 18.1424 153.434 18.0238L154.336 22.4514C154.37 22.6149 154.516 22.7273 154.681 22.7273C154.704 22.7273 154.727 22.7253 154.75 22.7212C154.935 22.6844 155.054 22.5147 155.027 22.3349L155.918 22.8132C155.914 22.9072 155.91 23.0012 155.91 23.0994C155.91 23.7126 155.964 24.287 156.062 24.8246C156.06 24.8246 156.056 24.8246 156.054 24.8287H156.056ZM177.211 24.1051C176.769 21.8709 176.275 19.3034 176.056 18.0034C177.851 17.0508 181.594 14.6776 182.426 11.1127C182.65 10.1601 182.426 9.12579 182.228 8.21411C182.087 7.56408 181.912 6.75461 182.136 6.61152C182.334 6.48274 182.638 6.35601 182.952 6.48274C183.399 6.66263 183.761 7.30039 183.975 8.27952C184.014 8.46554 184.201 8.58205 184.393 8.54526C184.584 8.50642 184.705 8.32245 184.665 8.13643C184.429 7.04692 184.027 6.32126 183.468 5.97172C183.644 5.1786 184.044 4.1872 184.425 4.15858C184.958 4.11975 185.046 4.36504 185.056 4.40592C185.084 4.55923 185.207 4.68597 185.364 4.70232C185.521 4.71867 185.667 4.63691 185.724 4.49178C185.728 4.48564 185.824 4.32416 186.209 4.2935C186.374 4.2935 186.513 4.33642 186.615 4.43658C186.843 4.65735 186.891 5.09683 186.891 5.24401C186.891 5.37279 186.962 5.49135 187.077 5.55063C187.193 5.61195 187.337 5.60173 187.444 5.53019C187.448 5.52814 187.76 5.32578 187.996 5.43207C188.237 5.54041 188.414 5.96967 188.483 6.59721C189.189 17.3084 181.064 22.3349 177.206 24.1051H177.211Z" fill="#7FBE26"/>
<path d="M84.1651 26.5845C83.3533 26.006 82.5122 25.4255 81.6377 24.8777C81.169 27.7742 78.2671 29.4197 75.5849 29.4197C71.3732 29.4197 69.2496 26.6765 69.2496 23.8106C69.2496 20.3663 72.5574 18.3835 76.2398 18.2323V16.9833H71.5595V12.8685H76.2398V11.4662H70.3732V7.19812H76.2398V4.51624H81.7005V7.19812H86.818V11.4662H81.7005V12.8685H85.9435V16.9833H81.7005V19.1174C83.573 19.7572 85.5083 20.7935 87.3788 22.2878L84.1651 26.5866V26.5845ZM76.426 22.5903C76.0828 22.529 75.7711 22.4983 75.4594 22.4983C74.8673 22.4983 73.9613 22.8336 73.9613 23.7779C73.9613 24.4791 74.3986 24.9962 75.1476 24.9962C75.7711 24.9962 76.426 24.569 76.426 23.686V22.5883V22.5903Z" fill="#007D4F"/>
<path d="M112.245 20.9694C111.362 24.2379 108.866 26.9055 106.989 27.8744L103.317 24.3585C104.449 23.5674 106.232 21.4293 106.778 19.4036C107.372 17.2062 106.79 15.1375 105.056 13.8231C102.671 22.0568 98.3294 24.5261 94.5404 23.547C90.7221 22.5617 89.404 19.0029 90.3643 15.4462C91.8352 10.0088 96.8105 6.24969 104.654 8.27336C110.96 9.90048 113.808 15.1845 112.243 20.9694H112.245ZM100.328 12.5721C97.798 12.9094 95.8397 14.8799 95.3396 16.7299C95.097 17.6272 95.099 18.5553 95.9589 18.776C97.1139 19.0745 98.7793 16.781 100.33 12.5701L100.328 12.5721Z" fill="#007D4F"/>
<path d="M44.1116 9.53457V5.62622H50.3422V9.53457H54.2107V14.3403H50.2753C49.8484 19.8185 47.8483 23.5981 44.3731 26.1614L39.9146 22.0282C42.5047 20.0413 43.7517 17.384 44.0467 14.3403H40.3414V9.53457H44.1116ZM54.0789 22.5086H65.8833V27.8907C64.538 28.179 62.5064 28.3077 60.3744 28.3077C58.1127 28.3077 55.7841 28.1483 54.0789 27.8274V22.5086ZM55.5874 12.9932H65.1614V18.1199H55.5874V12.9932Z" fill="#007D4F"/>
<path d="M138.854 25.1291C138.155 24.567 137.398 23.9946 136.571 23.4427C135.864 25.1782 135.056 26.746 134.077 28.0113L128.646 27.21C129.771 25.1986 130.738 23.0094 131.569 20.6791C130.772 20.3479 130.006 20.0188 129.232 19.7531C128.177 23.1238 125.476 26.1921 121.118 25.5482C117.741 25.0514 115.32 22.6394 115.844 19.2502C116.505 14.9617 120.574 13.4163 125.397 13.6964C125.579 12.9257 125.738 12.0917 125.903 11.225L120.379 10.4115L121.074 5.91443L131.968 7.5211C131.573 9.67151 131.027 12.196 130.504 14.5733C131.405 14.8288 132.303 15.115 133.161 15.4564C133.454 14.3648 133.684 13.2957 133.916 12.194L139.195 12.9728C138.979 14.5651 138.651 16.2965 138.255 18.0463C139.622 18.9538 140.816 19.9575 141.747 21.045L138.858 25.1271L138.854 25.1291ZM124.181 18.5205C122.141 18.312 120.859 18.8905 120.679 20.0597C120.587 20.6586 120.823 21.1533 121.315 21.2269C122.664 21.4252 123.503 20.4767 124.181 18.5205Z" fill="#007D4F"/>
</svg>
