<?xml version="1.0" encoding="UTF-8"?><svg xmlns="http://www.w3.org/2000/svg" viewBox="0 0 400 400"><defs><style>.cls-1{fill:#8e8e8e;}.cls-2{fill:#a5a5a5;}.cls-3{fill:#b7b7b7;}.cls-4{fill:#fff;}.cls-5{fill:#d3d3d3;}</style></defs><g id="_レイヤー_2"><circle class="cls-1" cx="200" cy="200" r="144"/><path class="cls-2" d="M128.75,313.35c4.54,2.86,9.27,5.46,14.15,7.76l-9.52-15.14-4.64,7.38Z"/><path class="cls-5" d="M183.13,332.82c5.53.7,11.16,1.06,16.87,1.06s11.35-.36,16.87-1.06l-16.87-26.85-16.87,26.85Z"/><path class="cls-2" d="M266.61,305.97l-9.52,15.14c4.89-2.31,9.61-4.9,14.15-7.76l-4.64-7.38Z"/><path class="cls-5" d="M118.2,305.97c3.39,2.62,6.91,5.08,10.55,7.38l4.64-7.38h-15.19Z"/><path class="cls-1" d="M133.39,305.97l9.52,15.14c12.47,5.89,26,9.92,40.22,11.7l16.87-26.85h-66.61Z"/><path class="cls-1" d="M200,305.97l16.87,26.85c14.22-1.79,27.75-5.81,40.22-11.7l9.52-15.14h-66.61Z"/><path class="cls-1" d="M266.61,305.97l4.64,7.38c3.64-2.29,7.16-4.75,10.55-7.38h-15.19Z"/><path class="cls-5" d="M133.39,252.99l-26.9,42.8c3.7,3.62,7.61,7.02,11.71,10.19h48.49l-33.31-52.99Z"/><polygon class="cls-2" points="166.69 305.97 233.31 305.97 200 252.99 166.69 305.97"/><path class="cls-5" d="M266.61,252.99l-33.31,52.99h48.49c4.1-3.17,8.01-6.57,11.71-10.19l-26.9-42.8Z"/><path class="cls-1" d="M77.03,252.99c6.97,16.16,17.04,30.68,29.46,42.8l26.9-42.8h-56.36Z"/><polygon class="cls-1" points="166.69 305.97 200 252.99 133.39 252.99 166.69 305.97"/><polygon class="cls-3" points="233.31 305.97 266.61 252.99 200 252.99 233.31 305.97"/><path class="cls-1" d="M322.97,252.99h-56.36l26.9,42.8c12.41-12.12,22.48-26.63,29.46-42.8Z"/><path class="cls-3" d="M66.78,200l-.64,1.01c.14,18.45,4.01,36.01,10.89,51.97h23.05l-33.31-52.99Z"/><polygon class="cls-2" points="100.08 252.99 166.69 252.99 133.39 200 100.08 252.99"/><polygon class="cls-1" points="166.69 252.99 233.31 252.99 200 200 166.69 252.99"/><polygon class="cls-2" points="266.61 200 233.31 252.99 299.92 252.99 266.61 200"/><path class="cls-5" d="M299.92,252.99h23.05c6.89-15.96,10.75-33.52,10.89-51.97l-.64-1.01-33.31,52.99Z"/><polygon class="cls-1" points="100.08 252.99 133.39 200 66.78 200 100.08 252.99"/><polygon class="cls-3" points="166.69 252.99 200 200 133.39 200 166.69 252.99"/><polygon class="cls-5" points="233.31 252.99 266.61 200 200 200 233.31 252.99"/><polygon class="cls-1" points="266.61 200 299.92 252.99 333.22 200 266.61 200"/><path class="cls-1" d="M333.22,200l.64,1.01c0-.34.01-.68.01-1.01h-.65Z"/><path class="cls-2" d="M73.14,157.13c-4.55,13.46-7.01,27.87-7.01,42.87h33.96l-26.94-42.87Z"/><polygon class="cls-1" points="100.08 200 166.69 200 133.39 147.01 100.08 200"/><polygon class="cls-3" points="166.69 200 233.31 200 200 147.01 166.69 200"/><polygon class="cls-5" points="266.61 147.01 233.31 200 299.92 200 266.61 147.01"/><path class="cls-1" d="M333.87,200h0c0-14.99-2.47-29.41-7.01-42.87l-26.94,42.87h33.96Z"/><path class="cls-5" d="M133.39,147.01h-56.36c-1.43,3.31-2.73,6.68-3.89,10.12l26.94,42.87,33.31-52.99Z"/><polygon class="cls-5" points="166.69 200 200 147.01 133.39 147.01 166.69 200"/><polygon class="cls-1" points="233.31 200 266.61 147.01 200 147.01 233.31 200"/><path class="cls-2" d="M299.92,200l26.94-42.87c-1.16-3.44-2.47-6.81-3.89-10.12h-56.36l33.31,52.99Z"/><path class="cls-5" d="M87.64,127.21c-4.06,6.26-7.62,12.88-10.6,19.8h23.05l-12.45-19.8Z"/><polygon class="cls-5" points="100.08 147.01 166.69 147.01 133.39 94.03 100.08 147.01"/><polygon class="cls-2" points="166.69 147.01 233.31 147.01 200 94.03 166.69 147.01"/><polygon class="cls-1" points="266.61 94.03 233.31 147.01 299.92 147.01 266.61 94.03"/><path class="cls-5" d="M322.97,147.01c-2.99-6.92-6.54-13.54-10.6-19.8l-12.45,19.8h23.05Z"/><path class="cls-2" d="M133.39,94.03h-15.19c-11.96,9.25-22.31,20.47-30.56,33.18l12.45,19.8,33.31-52.99Z"/><polygon class="cls-3" points="166.69 147.01 200 94.03 133.39 94.03 166.69 147.01"/><polygon class="cls-5" points="233.31 147.01 266.61 94.03 200 94.03 233.31 147.01"/><path class="cls-3" d="M299.92,147.01l12.45-19.8c-8.25-12.71-18.6-23.94-30.56-33.18h-15.19l33.31,52.99Z"/><path class="cls-3" d="M154.21,74.17c-13.08,4.76-25.2,11.5-36.01,19.86h48.49l-12.48-19.86Z"/><path class="cls-1" d="M233.31,94.03l-16.91-26.9c-5.37-.66-10.85-1-16.4-1s-11.02.34-16.4,1l-16.91,26.9h66.61Z"/><path class="cls-2" d="M281.8,94.03c-10.81-8.36-22.93-15.1-36.01-19.86l-12.48,19.86h48.49Z"/><path class="cls-5" d="M183.6,67.13c-10.2,1.25-20.04,3.63-29.39,7.04l12.48,19.86,16.91-26.9Z"/><path class="cls-3" d="M245.79,74.17c-9.35-3.41-19.2-5.79-29.39-7.04l16.91,26.9,12.48-19.86Z"/></g><g id="_レイヤー_4"><path class="cls-4" d="M194.18,265.91c-11.25,0-20.65-1.66-28.21-4.99-7.56-3.32-13.3-7.68-17.23-13.06-3.93-5.38-6.02-11.03-6.26-16.96,0-1.09.36-2,1.09-2.72s1.63-1.09,2.72-1.09h16.14c1.57,0,2.75.33,3.54,1,.79.67,1.48,1.48,2.09,2.45.73,2.3,2.11,4.57,4.17,6.8,2.05,2.24,4.87,4.08,8.43,5.53,3.57,1.45,8.07,2.18,13.51,2.18,8.71,0,15.21-1.45,19.5-4.35,4.29-2.9,6.44-6.83,6.44-11.79,0-3.51-1.15-6.32-3.45-8.43-2.3-2.11-5.84-4.05-10.61-5.8-4.78-1.75-11.1-3.6-18.96-5.53-9.07-2.18-16.66-4.81-22.76-7.89-6.11-3.08-10.7-6.98-13.79-11.7-3.08-4.72-4.63-10.7-4.63-17.96s1.9-13.24,5.71-18.68c3.81-5.44,9.25-9.73,16.33-12.88,7.08-3.14,15.51-4.72,25.3-4.72,7.86,0,14.81,1.06,20.86,3.17,6.05,2.12,11.07,4.9,15.06,8.34,3.99,3.45,7.04,7.14,9.16,11.07,2.11,3.93,3.23,7.77,3.36,11.52,0,.97-.33,1.84-1,2.63-.67.79-1.6,1.18-2.81,1.18h-16.87c-.97,0-1.94-.24-2.9-.73-.97-.48-1.75-1.39-2.36-2.72-.73-3.75-3.08-6.95-7.07-9.61-3.99-2.66-9.13-3.99-15.42-3.99s-11.79,1.21-15.78,3.63c-3.99,2.42-5.99,6.17-5.99,11.25,0,3.39,1,6.2,2.99,8.44,2,2.24,5.2,4.2,9.61,5.89,4.41,1.7,10.25,3.51,17.5,5.44,10.28,2.3,18.68,4.96,25.21,7.98,6.53,3.02,11.31,6.86,14.33,11.52,3.02,4.66,4.53,10.55,4.53,17.69,0,7.98-2.15,14.78-6.44,20.41-4.29,5.62-10.31,9.95-18.05,12.97-7.74,3.02-16.75,4.53-27.03,4.53Z"/></g></svg>